<?xml version='1.0' encoding='utf-8'?>
<svg xmlns:xlink="http://www.w3.org/1999/xlink" class="pygal-chart" id="chart-aa92ae84-5221-4667-ad08-f5f18eb3504e" viewBox="0 0 800 600" xmlns="http://www.w3.org/2000/svg"><!--Generated with pygal 2.3.0 (etree) ©Kozea 2012-2016 on 2016-12-01--><!--http://pygal.org--><!--http://github.com/Kozea/pygal--><defs><style type="text/css">#chart-aa92ae84-5221-4667-ad08-f5f18eb3504e{-webkit-user-select:none;-webkit-font-smoothing:antialiased;font-family:Consolas,"Liberation Mono",Menlo,Courier,monospace}#chart-aa92ae84-5221-4667-ad08-f5f18eb3504e .title{font-family:Consolas,"Liberation Mono",Menlo,Courier,monospace;font-size:16px}#chart-aa92ae84-5221-4667-ad08-f5f18eb3504e .legends .legend text{font-family:Consolas,"Liberation Mono",Menlo,Courier,monospace;font-size:14px}#chart-aa92ae84-5221-4667-ad08-f5f18eb3504e .axis text{font-family:Consolas,"Liberation Mono",Menlo,Courier,monospace;font-size:10px}#chart-aa92ae84-5221-4667-ad08-f5f18eb3504e .axis text.major{font-family:Consolas,"Liberation Mono",Menlo,Courier,monospace;font-size:10px}#chart-aa92ae84-5221-4667-ad08-f5f18eb3504e .text-overlay text.value{font-family:Consolas,"Liberation Mono",Menlo,Courier,monospace;font-size:16px}#chart-aa92ae84-5221-4667-ad08-f5f18eb3504e .text-overlay text.label{font-family:Consolas,"Liberation Mono",Menlo,Courier,monospace;font-size:10px}#chart-aa92ae84-5221-4667-ad08-f5f18eb3504e .tooltip{font-family:Consolas,"Liberation Mono",Menlo,Courier,monospace;font-size:14px}#chart-aa92ae84-5221-4667-ad08-f5f18eb3504e text.no_data{font-family:Consolas,"Liberation Mono",Menlo,Courier,monospace;font-size:64px}
#chart-aa92ae84-5221-4667-ad08-f5f18eb3504e{background-color:black}#chart-aa92ae84-5221-4667-ad08-f5f18eb3504e path,#chart-aa92ae84-5221-4667-ad08-f5f18eb3504e line,#chart-aa92ae84-5221-4667-ad08-f5f18eb3504e rect,#chart-aa92ae84-5221-4667-ad08-f5f18eb3504e circle{-webkit-transition:250ms;-moz-transition:250ms;transition:250ms}#chart-aa92ae84-5221-4667-ad08-f5f18eb3504e .graph &gt; .background{fill:black}#chart-aa92ae84-5221-4667-ad08-f5f18eb3504e .plot &gt; .background{fill:#111}#chart-aa92ae84-5221-4667-ad08-f5f18eb3504e .graph{fill:#999}#chart-aa92ae84-5221-4667-ad08-f5f18eb3504e text.no_data{fill:#eee}#chart-aa92ae84-5221-4667-ad08-f5f18eb3504e .title{fill:#eee}#chart-aa92ae84-5221-4667-ad08-f5f18eb3504e .legends .legend text{fill:#999}#chart-aa92ae84-5221-4667-ad08-f5f18eb3504e .legends .legend:hover text{fill:#eee}#chart-aa92ae84-5221-4667-ad08-f5f18eb3504e .axis .line{stroke:#eee}#chart-aa92ae84-5221-4667-ad08-f5f18eb3504e .axis .guide.line{stroke:#555}#chart-aa92ae84-5221-4667-ad08-f5f18eb3504e .axis .major.line{stroke:#999}#chart-aa92ae84-5221-4667-ad08-f5f18eb3504e .axis text.major{fill:#eee}#chart-aa92ae84-5221-4667-ad08-f5f18eb3504e .axis.y .guides:hover .guide.line,#chart-aa92ae84-5221-4667-ad08-f5f18eb3504e .line-graph .axis.x .guides:hover .guide.line,#chart-aa92ae84-5221-4667-ad08-f5f18eb3504e .stackedline-graph .axis.x .guides:hover .guide.line,#chart-aa92ae84-5221-4667-ad08-f5f18eb3504e .xy-graph .axis.x .guides:hover .guide.line{stroke:#eee}#chart-aa92ae84-5221-4667-ad08-f5f18eb3504e .axis .guides:hover text{fill:#eee}#chart-aa92ae84-5221-4667-ad08-f5f18eb3504e .reactive{fill-opacity:.8;stroke-opacity:.8}#chart-aa92ae84-5221-4667-ad08-f5f18eb3504e .ci{stroke:#999}#chart-aa92ae84-5221-4667-ad08-f5f18eb3504e .reactive.active,#chart-aa92ae84-5221-4667-ad08-f5f18eb3504e .active .reactive{fill-opacity:.4;stroke-opacity:.9;stroke-width:4}#chart-aa92ae84-5221-4667-ad08-f5f18eb3504e .ci .reactive.active{stroke-width:1.5}#chart-aa92ae84-5221-4667-ad08-f5f18eb3504e .series text{fill:#eee}#chart-aa92ae84-5221-4667-ad08-f5f18eb3504e .tooltip rect{fill:#111;stroke:#eee;-webkit-transition:opacity 250ms;-moz-transition:opacity 250ms;transition:opacity 250ms}#chart-aa92ae84-5221-4667-ad08-f5f18eb3504e .tooltip .label{fill:#999}#chart-aa92ae84-5221-4667-ad08-f5f18eb3504e .tooltip .label{fill:#999}#chart-aa92ae84-5221-4667-ad08-f5f18eb3504e .tooltip .legend{font-size:.8em;fill:#555}#chart-aa92ae84-5221-4667-ad08-f5f18eb3504e .tooltip .x_label{font-size:.6em;fill:#eee}#chart-aa92ae84-5221-4667-ad08-f5f18eb3504e .tooltip .xlink{font-size:.5em;text-decoration:underline}#chart-aa92ae84-5221-4667-ad08-f5f18eb3504e .tooltip .value{font-size:1.5em}#chart-aa92ae84-5221-4667-ad08-f5f18eb3504e .bound{font-size:.5em}#chart-aa92ae84-5221-4667-ad08-f5f18eb3504e .max-value{font-size:.75em;fill:#555}#chart-aa92ae84-5221-4667-ad08-f5f18eb3504e .map-element{fill:#111;stroke:#555 !important}#chart-aa92ae84-5221-4667-ad08-f5f18eb3504e .map-element .reactive{fill-opacity:inherit;stroke-opacity:inherit}#chart-aa92ae84-5221-4667-ad08-f5f18eb3504e .color-0,#chart-aa92ae84-5221-4667-ad08-f5f18eb3504e .color-0 a:visited{stroke:#ff5995;fill:#ff5995}#chart-aa92ae84-5221-4667-ad08-f5f18eb3504e .color-1,#chart-aa92ae84-5221-4667-ad08-f5f18eb3504e .color-1 a:visited{stroke:#b6e354;fill:#b6e354}#chart-aa92ae84-5221-4667-ad08-f5f18eb3504e .text-overlay .color-0 text{fill:black}#chart-aa92ae84-5221-4667-ad08-f5f18eb3504e .text-overlay .color-1 text{fill:black}
#chart-aa92ae84-5221-4667-ad08-f5f18eb3504e text.no_data{text-anchor:middle}#chart-aa92ae84-5221-4667-ad08-f5f18eb3504e .guide.line{fill:none}#chart-aa92ae84-5221-4667-ad08-f5f18eb3504e .centered{text-anchor:middle}#chart-aa92ae84-5221-4667-ad08-f5f18eb3504e .title{text-anchor:middle}#chart-aa92ae84-5221-4667-ad08-f5f18eb3504e .legends .legend text{fill-opacity:1}#chart-aa92ae84-5221-4667-ad08-f5f18eb3504e .axis.x text{text-anchor:middle}#chart-aa92ae84-5221-4667-ad08-f5f18eb3504e .axis.x:not(.web) text[transform]{text-anchor:start}#chart-aa92ae84-5221-4667-ad08-f5f18eb3504e .axis.x:not(.web) text[transform].backwards{text-anchor:end}#chart-aa92ae84-5221-4667-ad08-f5f18eb3504e .axis.y text{text-anchor:end}#chart-aa92ae84-5221-4667-ad08-f5f18eb3504e .axis.y text[transform].backwards{text-anchor:start}#chart-aa92ae84-5221-4667-ad08-f5f18eb3504e .axis.y2 text{text-anchor:start}#chart-aa92ae84-5221-4667-ad08-f5f18eb3504e .axis.y2 text[transform].backwards{text-anchor:end}#chart-aa92ae84-5221-4667-ad08-f5f18eb3504e .axis .guide.line{stroke-dasharray:4,4}#chart-aa92ae84-5221-4667-ad08-f5f18eb3504e .axis .major.guide.line{stroke-dasharray:6,6}#chart-aa92ae84-5221-4667-ad08-f5f18eb3504e .horizontal .axis.y .guide.line,#chart-aa92ae84-5221-4667-ad08-f5f18eb3504e .horizontal .axis.y2 .guide.line,#chart-aa92ae84-5221-4667-ad08-f5f18eb3504e .vertical .axis.x .guide.line{opacity:0}#chart-aa92ae84-5221-4667-ad08-f5f18eb3504e .horizontal .axis.always_show .guide.line,#chart-aa92ae84-5221-4667-ad08-f5f18eb3504e .vertical .axis.always_show .guide.line{opacity:1 !important}#chart-aa92ae84-5221-4667-ad08-f5f18eb3504e .axis.y .guides:hover .guide.line,#chart-aa92ae84-5221-4667-ad08-f5f18eb3504e .axis.y2 .guides:hover .guide.line,#chart-aa92ae84-5221-4667-ad08-f5f18eb3504e .axis.x .guides:hover .guide.line{opacity:1}#chart-aa92ae84-5221-4667-ad08-f5f18eb3504e .axis .guides:hover text{opacity:1}#chart-aa92ae84-5221-4667-ad08-f5f18eb3504e .nofill{fill:none}#chart-aa92ae84-5221-4667-ad08-f5f18eb3504e .subtle-fill{fill-opacity:.2}#chart-aa92ae84-5221-4667-ad08-f5f18eb3504e .dot{stroke-width:1px;fill-opacity:1}#chart-aa92ae84-5221-4667-ad08-f5f18eb3504e .dot.active{stroke-width:5px}#chart-aa92ae84-5221-4667-ad08-f5f18eb3504e .dot.negative{fill:transparent}#chart-aa92ae84-5221-4667-ad08-f5f18eb3504e text,#chart-aa92ae84-5221-4667-ad08-f5f18eb3504e tspan{stroke:none !important}#chart-aa92ae84-5221-4667-ad08-f5f18eb3504e .series text.active{opacity:1}#chart-aa92ae84-5221-4667-ad08-f5f18eb3504e .tooltip rect{fill-opacity:.95;stroke-width:.5}#chart-aa92ae84-5221-4667-ad08-f5f18eb3504e .tooltip text{fill-opacity:1}#chart-aa92ae84-5221-4667-ad08-f5f18eb3504e .showable{visibility:hidden}#chart-aa92ae84-5221-4667-ad08-f5f18eb3504e .showable.shown{visibility:visible}#chart-aa92ae84-5221-4667-ad08-f5f18eb3504e .gauge-background{fill:rgba(229,229,229,1);stroke:none}#chart-aa92ae84-5221-4667-ad08-f5f18eb3504e .bg-lines{stroke:black;stroke-width:2px}</style><script type="text/javascript">window.pygal = window.pygal || {};window.pygal.config = window.pygal.config || {};window.pygal.config['aa92ae84-5221-4667-ad08-f5f18eb3504e'] = {"box_mode": "extremes", "y_labels_major_count": null, "truncate_label": null, "interpolate": "cubic", "tooltip_fancy_mode": true, "show_y_guides": true, "margin": 20, "disable_xml_declaration": false, "interpolation_parameters": {}, "fill": true, "x_labels_major": null, "legend_at_bottom": false, "max_scale": 16, "show_x_guides": false, "print_zeroes": true, "legends": ["Male", "Female"], "style": {"background": "black", "label_font_size": 10, "value_colors": [], "label_font_family": "Consolas, \"Liberation Mono\", Menlo, Courier, monospace", "transition": "250ms", "value_label_font_family": "Consolas, \"Liberation Mono\", Menlo, Courier, monospace", "major_label_font_family": "Consolas, \"Liberation Mono\", Menlo, Courier, monospace", "foreground": "#999", "value_font_family": "Consolas, \"Liberation Mono\", Menlo, Courier, monospace", "font_family": "Consolas, \"Liberation Mono\", Menlo, Courier, monospace", "title_font_size": 16, "plot_background": "#111", "no_data_font_family": "Consolas, \"Liberation Mono\", Menlo, Courier, monospace", "legend_font_size": 14, "title_font_family": "Consolas, \"Liberation Mono\", Menlo, Courier, monospace", "value_font_size": 16, "tooltip_font_size": 14, "stroke_opacity_hover": ".9", "tooltip_font_family": "Consolas, \"Liberation Mono\", Menlo, Courier, monospace", "opacity_hover": ".4", "legend_font_family": "Consolas, \"Liberation Mono\", Menlo, Courier, monospace", "value_label_font_size": 10, "value_background": "rgba(229, 229, 229, 1)", "major_label_font_size": 10, "major_guide_stroke_dasharray": "6,6", "stroke_opacity": ".8", "no_data_font_size": 64, "foreground_strong": "#eee", "guide_stroke_dasharray": "4,4", "opacity": ".8", "colors": ["#ff5995", "#b6e354", "#feed6c", "#8cedff", "#9e6ffe", "#899ca1", "#f8f8f2", "#bf4646", "#516083", "#f92672", "#82b414", "#fd971f", "#56c2d6", "#808384", "#8c54fe", "#465457"], "foreground_subtle": "#555", "ci_colors": []}, "width": 800, "stack_from_top": false, "x_title": "Years", "print_labels": false, "stroke_style": null, "y_labels_major": null, "missing_value_fill_truncation": "x", "formatter": null, "min_scale": 4, "no_prefix": false, "y_labels": null, "y_title": "Number of Patients", "truncate_legend": null, "stroke": true, "x_labels_major_count": null, "rounded_bars": null, "force_uri_protocol": "https", "print_values_position": "center", "y_label_rotation": 0, "spacing": 10, "margin_bottom": null, "y_labels_major_every": null, "show_only_major_dots": false, "margin_right": null, "show_minor_y_labels": true, "margin_top": null, "range": null, "show_dots": true, "defs": [], "explicit_size": false, "margin_left": null, "x_labels": ["2555", "2556", "2557", "2558"], "height": 600, "xrange": null, "include_x_axis": false, "title": "Gender", "secondary_range": null, "js": ["//kozea.github.io/pygal.js/2.0.x/pygal-tooltips.min.js"], "zero": 0, "css": ["file://style.css", "file://graph.css"], "legend_box_size": 12, "inverse_y_axis": false, "x_label_rotation": 0, "show_minor_x_labels": true, "half_pie": false, "logarithmic": false, "x_labels_major_every": null, "show_legend": true, "inner_radius": 0, "show_x_labels": true, "pretty_print": false, "no_data_text": "No data", "classes": ["pygal-chart"], "tooltip_border_radius": 0, "allow_interruptions": false, "print_values": false, "dynamic_print_values": false, "strict": false, "show_y_labels": true, "order_min": null, "legend_at_bottom_columns": null, "interpolation_precision": 250, "dots_size": 2.5}</script><script type="text/javascript" xlink:href="https://kozea.github.io/pygal.js/2.0.x/pygal-tooltips.min.js" /></defs><title>Gender</title><g class="graph line-graph vertical"><rect class="background" height="600" width="800" x="0" y="0" /><g class="plot" transform="translate(152, 46)"><rect class="background" height="488" width="627.6" x="0" y="0" /><g class="axis y"><path class="line" d="M0.000000 488.000000 h627.600000" /><g class="guides"><path class="guide line" d="M0.000000 473.773474 h627.600000" /><text class="" x="-5" y="477.27347430978864">1000</text><title>1000</title></g><g class="guides"><path class="guide line" d="M0.000000 411.697701 h627.600000" /><text class="" x="-5" y="415.19770116112227">2000</text><title>2000</title></g><g class="guides"><path class="guide line" d="M0.000000 349.621928 h627.600000" /><text class="" x="-5" y="353.1219280124559">3000</text><title>3000</title></g><g class="guides"><path class="guide line" d="M0.000000 287.546155 h627.600000" /><text class="" x="-5" y="291.04615486378947">4000</text><title>4000</title></g><g class="guides"><path class="major guide line" d="M0.000000 225.470382 h627.600000" /><text class="major" x="-5" y="228.9703817151231">5000</text><title>5000</title></g><g class="guides"><path class="guide line" d="M0.000000 163.394609 h627.600000" /><text class="" x="-5" y="166.89460856645667">6000</text><title>6000</title></g><g class="guides"><path class="guide line" d="M0.000000 101.318835 h627.600000" /><text class="" x="-5" y="104.8188354177903">7000</text><title>7000</title></g><g class="guides"><path class="guide line" d="M0.000000 39.243062 h627.600000" /><text class="" x="-5" y="42.743062269123925">8000</text><title>8000</title></g></g><g class="axis x"><g class="guides"><path class="line" d="M12.069231 0.000000 v488.000000" /><text class="" x="12.06923076923077" y="503.0">2555</text></g><g class="guides"><path class="guide line" d="M213.223077 0.000000 v488.000000" /><text class="" x="213.22307692307692" y="503.0">2556</text></g><g class="guides"><path class="guide line" d="M414.376923 0.000000 v488.000000" /><text class="" x="414.37692307692305" y="503.0">2557</text></g><g class="guides"><path class="guide line" d="M615.530769 0.000000 v488.000000" /><text class="" x="615.5307692307692" y="503.0">2558</text></g></g><g class="series serie-0 color-0"><path class="line reactive" d="M12.069231 488.000000 L12.069231 9.384615 12.873846 9.846342 13.678462 10.308064 14.483077 10.769774 15.287692 11.231468 16.092308 11.693139 16.896923 12.154783 17.701538 12.616394 18.506154 13.077965 19.310769 13.539493 20.115385 14.000970 20.920000 14.462392 21.724615 14.923754 22.529231 15.385048 23.333846 15.846271 24.138462 16.307416 24.943077 16.768477 25.747692 17.229451 26.552308 17.690329 27.356923 18.151109 28.161538 18.611782 28.966154 19.072345 29.770769 19.532792 30.575385 19.993116 31.380000 20.453314 32.184615 20.913378 32.989231 21.373303 33.793846 21.833085 34.598462 22.292716 35.403077 22.752193 36.207692 23.211509 37.012308 23.670658 37.816923 24.129636 38.621538 24.588436 39.426154 25.047053 40.230769 25.505482 41.035385 25.963717 41.840000 26.421753 42.644615 26.879583 43.449231 27.337203 44.253846 27.794606 45.058462 28.251788 45.863077 28.708742 46.667692 29.165464 47.472308 29.621947 48.276923 30.078187 49.081538 30.534177 49.886154 30.989912 50.690769 31.445386 51.495385 31.900595 52.300000 32.355532 53.104615 32.810191 53.909231 33.264569 54.713846 33.718657 55.518462 34.172452 56.323077 34.625948 57.127692 35.079139 57.932308 35.532019 58.736923 35.984584 59.541538 36.436827 60.346154 36.888743 61.150769 37.340326 61.955385 37.791572 62.760000 38.242473 63.564615 38.693026 64.369231 39.143223 65.173846 39.593061 65.978462 40.042532 66.783077 40.491633 67.587692 40.940356 68.392308 41.388697 69.196923 41.836649 70.001538 42.284209 70.806154 42.731369 71.610769 43.178124 72.415385 43.624470 73.220000 44.070399 74.024615 44.515908 74.829231 44.960989 75.633846 45.405638 76.438462 45.849850 77.243077 46.293618 78.047692 46.736937 78.852308 47.179801 79.656923 47.622205 80.461538 48.064144 81.266154 48.505612 82.070769 48.946603 82.875385 49.387111 83.680000 49.827132 84.484615 50.266660 85.289231 50.705688 86.093846 51.144213 86.898462 51.582227 87.703077 52.019726 88.507692 52.456704 89.312308 52.893155 90.116923 53.329074 90.921538 53.764455 91.726154 54.199294 92.530769 54.633583 93.335385 55.067318 94.140000 55.500494 94.944615 55.933104 95.749231 56.365143 96.553846 56.796605 97.358462 57.227486 98.163077 57.657779 98.967692 58.087479 99.772308 58.516580 100.576923 58.945078 101.381538 59.372965 102.186154 59.800237 102.990769 60.226889 103.795385 60.652914 104.600000 61.078307 105.404615 61.503062 106.209231 61.927175 107.013846 62.350639 107.818462 62.773449 108.623077 63.195600 109.427692 63.617085 110.232308 64.037900 111.036923 64.458038 111.841538 64.877495 112.646154 65.296264 113.450769 65.714341 114.255385 66.131719 115.060000 66.548393 115.864615 66.964357 116.669231 67.379607 117.473846 67.794136 118.278462 68.207939 119.083077 68.621010 119.887692 69.033344 120.692308 69.444935 121.496923 69.855778 122.301538 70.265867 123.106154 70.675197 123.910769 71.083762 124.715385 71.491556 125.520000 71.898575 126.324615 72.304811 127.129231 72.710261 127.933846 73.114918 128.738462 73.518777 129.543077 73.921832 130.347692 74.324078 131.152308 74.725509 131.956923 75.126120 132.761538 75.525905 133.566154 75.924858 134.370769 76.322975 135.175385 76.720248 135.980000 77.116674 136.784615 77.512246 137.589231 77.906959 138.393846 78.300808 139.198462 78.693786 140.003077 79.085888 140.807692 79.477109 141.612308 79.867443 142.416923 80.256885 143.221538 80.645429 144.026154 81.033069 144.830769 81.419801 145.635385 81.805617 146.440000 82.190514 147.244615 82.574485 148.049231 82.957524 148.853846 83.339627 149.658462 83.720788 150.463077 84.101001 151.267692 84.480260 152.072308 84.858560 152.876923 85.235896 153.681538 85.612262 154.486154 85.987653 155.290769 86.362062 156.095385 86.735485 156.900000 87.107915 157.704615 87.479348 158.509231 87.849778 159.313846 88.219199 160.118462 88.587605 160.923077 88.954991 161.727692 89.321352 162.532308 89.686682 163.336923 90.050976 164.141538 90.414227 164.946154 90.776431 165.750769 91.137582 166.555385 91.497674 167.360000 91.856702 168.164615 92.214660 168.969231 92.571542 169.773846 92.927344 170.578462 93.282059 171.383077 93.635683 172.187692 93.988209 172.992308 94.339631 173.796923 94.689946 174.601538 95.039146 175.406154 95.387226 176.210769 95.734182 177.015385 96.080006 177.820000 96.424694 178.624615 96.768241 179.429231 97.110640 180.233846 97.451886 181.038462 97.791973 181.843077 98.130897 182.647692 98.468651 183.452308 98.805230 184.256923 99.140628 185.061538 99.474840 185.866154 99.807860 186.670769 100.139684 187.475385 100.470304 188.280000 100.799716 189.084615 101.127914 189.889231 101.454892 190.693846 101.780646 191.498462 102.105169 192.303077 102.428456 193.107692 102.750501 193.912308 103.071300 194.716923 103.390845 195.521538 103.709132 196.326154 104.026156 197.130769 104.341910 197.935385 104.656389 198.740000 104.969588 199.544615 105.281501 200.349231 105.592123 201.153846 105.901447 201.958462 106.209469 202.763077 106.516182 203.567692 106.821582 204.372308 107.125663 205.176923 107.428419 205.981538 107.729845 206.786154 108.029935 207.590769 108.328683 208.395385 108.626085 209.200000 108.922134 210.004615 109.216825 210.809231 109.510153 211.613846 109.802111 212.418462 110.092695 213.223077 110.381898 214.027692 110.669719 214.832308 110.956163 215.636923 111.241239 216.441538 111.524958 217.246154 111.807329 218.050769 112.088360 218.855385 112.368062 219.660000 112.646443 220.464615 112.923512 221.269231 113.199280 222.073846 113.473755 222.878462 113.746947 223.683077 114.018865 224.487692 114.289519 225.292308 114.558916 226.096923 114.827068 226.901538 115.093983 227.706154 115.359671 228.510769 115.624141 229.315385 115.887402 230.120000 116.149463 230.924615 116.410334 231.729231 116.670024 232.533846 116.928543 233.338462 117.185900 234.143077 117.442103 234.947692 117.697163 235.752308 117.951089 236.556923 118.203890 237.361538 118.455575 238.166154 118.706153 238.970769 118.955635 239.775385 119.204029 240.580000 119.451344 241.384615 119.697591 242.189231 119.942777 242.993846 120.186913 243.798462 120.430008 244.603077 120.672071 245.407692 120.913112 246.212308 121.153139 247.016923 121.392162 247.821538 121.630191 248.626154 121.867235 249.430769 122.103302 250.235385 122.338403 251.040000 122.572546 251.844615 122.805742 252.649231 123.037998 253.453846 123.269325 254.258462 123.499732 255.063077 123.729229 255.867692 123.957824 256.672308 124.185526 257.476923 124.412346 258.281538 124.638292 259.086154 124.863374 259.890769 125.087601 260.695385 125.310983 261.500000 125.533528 262.304615 125.755246 263.109231 125.976146 263.913846 126.196239 264.718462 126.415532 265.523077 126.634035 266.327692 126.851758 267.132308 127.068710 267.936923 127.284900 268.741538 127.500337 269.546154 127.715031 270.350769 127.928992 271.155385 128.142228 271.960000 128.354748 272.764615 128.566563 273.569231 128.777681 274.373846 128.988112 275.178462 129.197865 275.983077 129.406949 276.787692 129.615374 277.592308 129.823148 278.396923 130.030282 279.201538 130.236785 280.006154 130.442665 280.810769 130.647933 281.615385 130.852597 282.420000 131.056667 283.224615 131.260152 284.029231 131.463062 284.833846 131.665405 285.638462 131.867191 286.443077 132.068430 287.247692 132.269131 288.052308 132.469302 288.856923 132.668954 289.661538 132.868095 290.466154 133.066736 291.270769 133.264884 292.075385 133.462550 292.880000 133.659743 293.684615 133.856473 294.489231 134.052747 295.293846 134.248577 296.098462 134.443971 296.903077 134.638938 297.707692 134.833488 298.512308 135.027630 299.316923 135.221373 300.121538 135.414727 300.926154 135.607701 301.730769 135.800304 302.535385 135.992546 303.340000 136.184436 304.144615 136.375984 304.949231 136.567197 305.753846 136.758087 306.558462 136.948662 307.363077 137.138931 308.167692 137.328904 308.972308 137.518591 309.776923 137.707999 310.581538 137.897140 311.386154 138.086021 312.190769 138.274653 312.995385 138.463045 313.800000 138.651205 314.604615 138.839144 315.409231 139.026871 316.213846 139.214394 317.018462 139.401724 317.823077 139.588869 318.627692 139.775840 319.432308 139.962644 320.236923 140.149292 321.041538 140.335792 321.846154 140.522155 322.650769 140.708390 323.455385 140.894505 324.260000 141.080510 325.064615 141.266414 325.869231 141.452227 326.673846 141.637958 327.478462 141.823617 328.283077 142.009212 329.087692 142.194753 329.892308 142.380249 330.696923 142.565710 331.501538 142.751145 332.306154 142.936562 333.110769 143.121973 333.915385 143.307385 334.720000 143.492808 335.524615 143.678252 336.329231 143.863726 337.133846 144.049238 337.938462 144.234799 338.743077 144.420418 339.547692 144.606103 340.352308 144.791865 341.156923 144.977713 341.961538 145.163655 342.766154 145.349702 343.570769 145.535862 344.375385 145.722145 345.180000 145.908561 345.984615 146.095118 346.789231 146.281825 347.593846 146.468693 348.398462 146.655730 349.203077 146.842946 350.007692 147.030350 350.812308 147.217952 351.616923 147.405760 352.421538 147.593784 353.226154 147.782033 354.030769 147.970517 354.835385 148.159245 355.640000 148.348226 356.444615 148.537470 357.249231 148.726985 358.053846 148.916782 358.858462 149.106870 359.663077 149.297257 360.467692 149.487953 361.272308 149.678967 362.076923 149.870310 362.881538 150.061989 363.686154 150.254015 364.490769 150.446397 365.295385 150.639143 366.100000 150.832264 366.904615 151.025768 367.709231 151.219666 368.513846 151.413965 369.318462 151.608676 370.123077 151.803808 370.927692 151.999370 371.732308 152.195372 372.536923 152.391823 373.341538 152.588731 374.146154 152.786107 374.950769 152.983960 375.755385 153.182299 376.560000 153.381133 377.364615 153.580472 378.169231 153.780325 378.973846 153.980701 379.778462 154.181610 380.583077 154.383060 381.387692 154.585062 382.192308 154.787625 382.996923 154.990757 383.801538 155.194469 384.606154 155.398769 385.410769 155.603667 386.215385 155.809172 387.020000 156.015293 387.824615 156.222040 388.629231 156.429422 389.433846 156.637449 390.238462 156.846129 391.043077 157.055472 391.847692 157.265488 392.652308 157.476185 393.456923 157.687573 394.261538 157.899661 395.066154 158.112459 395.870769 158.325976 396.675385 158.540221 397.480000 158.755203 398.284615 158.970932 399.089231 159.187417 399.893846 159.404668 400.698462 159.622693 401.503077 159.841503 402.307692 160.061106 403.112308 160.281511 403.916923 160.502729 404.721538 160.724768 405.526154 160.947637 406.330769 161.171346 407.135385 161.395905 407.940000 161.621322 408.744615 161.847607 409.549231 162.074769 410.353846 162.302818 411.158462 162.531762 411.963077 162.761612 412.767692 162.992376 413.572308 163.224064 414.376923 163.456684 415.181538 163.690245 415.986154 163.924745 416.790769 164.160179 417.595385 164.396545 418.400000 164.633837 419.204615 164.872053 420.009231 165.111189 420.813846 165.351241 421.618462 165.592205 422.423077 165.834078 423.227692 166.076855 424.032308 166.320533 424.836923 166.565109 425.641538 166.810577 426.446154 167.056935 427.250769 167.304179 428.055385 167.552305 428.860000 167.801310 429.664615 168.051189 430.469231 168.301938 431.273846 168.553555 432.078462 168.806035 432.883077 169.059374 433.687692 169.313569 434.492308 169.568615 435.296923 169.824510 436.101538 170.081249 436.906154 170.338829 437.710769 170.597246 438.515385 170.856496 439.320000 171.116574 440.124615 171.377479 440.929231 171.639205 441.733846 171.901749 442.538462 172.165108 443.343077 172.429276 444.147692 172.694252 444.952308 172.960030 445.756923 173.226608 446.561538 173.493980 447.366154 173.762145 448.170769 174.031097 448.975385 174.300833 449.780000 174.571350 450.584615 174.842643 451.389231 175.114709 452.193846 175.387543 452.998462 175.661143 453.803077 175.935505 454.607692 176.210624 455.412308 176.486497 456.216923 176.763120 457.021538 177.040489 457.826154 177.318601 458.630769 177.597452 459.435385 177.877038 460.240000 178.157355 461.044615 178.438399 461.849231 178.720167 462.653846 179.002656 463.458462 179.285860 464.263077 179.569777 465.067692 179.854403 465.872308 180.139733 466.676923 180.425765 467.481538 180.712493 468.286154 180.999916 469.090769 181.288028 469.895385 181.576826 470.700000 181.866307 471.504615 182.156466 472.309231 182.447300 473.113846 182.738805 473.918462 183.030977 474.723077 183.323812 475.527692 183.617307 476.332308 183.911458 477.136923 184.206261 477.941538 184.501712 478.746154 184.797808 479.550769 185.094545 480.355385 185.391919 481.160000 185.689926 481.964615 185.988562 482.769231 186.287825 483.573846 186.587709 484.378462 186.888211 485.183077 187.189328 485.987692 187.491056 486.792308 187.793390 487.596923 188.096328 488.401538 188.399864 489.206154 188.703997 490.010769 189.008721 490.815385 189.314033 491.620000 189.619930 492.424615 189.926407 493.229231 190.233460 494.033846 190.541087 494.838462 190.849283 495.643077 191.158044 496.447692 191.467367 497.252308 191.777248 498.056923 192.087683 498.861538 192.398668 499.666154 192.710200 500.470769 193.022274 501.275385 193.334888 502.080000 193.648037 502.884615 193.961717 503.689231 194.275925 504.493846 194.590657 505.298462 194.905910 506.103077 195.221678 506.907692 195.537960 507.712308 195.854750 508.516923 196.172045 509.321538 196.489842 510.126154 196.808136 510.930769 197.126924 511.735385 197.446202 512.540000 197.765966 513.344615 198.086213 514.149231 198.406938 514.953846 198.728139 515.758462 199.049810 516.563077 199.371949 517.367692 199.694552 518.172308 200.017614 518.976923 200.341133 519.781538 200.665104 520.586154 200.989523 521.390769 201.314388 522.195385 201.639693 523.000000 201.965436 523.804615 202.291612 524.609231 202.618218 525.413846 202.945249 526.218462 203.272703 527.023077 203.600576 527.827692 203.928862 528.632308 204.257560 529.436923 204.586665 530.241538 204.916173 531.046154 205.246081 531.850769 205.576385 532.655385 205.907081 533.460000 206.238164 534.264615 206.569633 535.069231 206.901482 535.873846 207.233708 536.678462 207.566307 537.483077 207.899276 538.287692 208.232610 539.092308 208.566306 539.896923 208.900360 540.701538 209.234769 541.506154 209.569528 542.310769 209.904634 543.115385 210.240083 543.920000 210.575871 544.724615 210.911994 545.529231 211.248450 546.333846 211.585233 547.138462 211.922340 547.943077 212.259768 548.747692 212.597513 549.552308 212.935570 550.356923 213.273937 551.161538 213.612608 551.966154 213.951582 552.770769 214.290853 553.575385 214.630418 554.380000 214.970273 555.184615 215.310415 555.989231 215.650840 556.793846 215.991543 557.598462 216.332522 558.403077 216.673772 559.207692 217.015290 560.012308 217.357071 560.816923 217.699113 561.621538 218.041411 562.426154 218.383961 563.230769 218.726761 564.035385 219.069805 564.840000 219.413090 565.644615 219.756613 566.449231 220.100370 567.253846 220.444357 568.058462 220.788570 568.863077 221.133005 569.667692 221.477659 570.472308 221.822528 571.276923 222.167607 572.081538 222.512894 572.886154 222.858385 573.690769 223.204076 574.495385 223.549962 575.300000 223.896041 576.104615 224.242308 576.909231 224.588760 577.713846 224.935393 578.518462 225.282203 579.323077 225.629186 580.127692 225.976339 580.932308 226.323658 581.736923 226.671139 582.541538 227.018778 583.346154 227.366572 584.150769 227.714517 584.955385 228.062608 585.760000 228.410843 586.564615 228.759217 587.369231 229.107727 588.173846 229.456369 588.978462 229.805139 589.783077 230.154034 590.587692 230.503049 591.392308 230.852181 592.196923 231.201426 593.001538 231.550780 593.806154 231.900240 594.610769 232.249802 595.415385 232.599461 596.220000 232.949215 597.024615 233.299060 597.829231 233.648991 598.633846 233.999005 599.438462 234.349098 600.243077 234.699267 601.047692 235.049507 601.852308 235.399815 602.656923 235.750187 603.461538 236.100619 604.266154 236.451108 605.070769 236.801650 605.875385 237.152241 606.680000 237.502877 607.484615 237.853554 608.289231 238.204269 609.093846 238.555018 609.898462 238.905797 610.703077 239.256603 611.507692 239.607431 612.312308 239.958278 613.116923 240.309140 613.921538 240.660014 614.726154 241.010895 615.530769 241.361780 615.530769 488.000000" /></g><g class="series serie-1 color-1"><path class="line reactive" d="M12.069231 488.000000 L12.069231 459.247743 12.873846 459.287670 13.678462 459.327597 14.483077 459.367521 15.287692 459.407444 16.092308 459.447363 16.896923 459.487278 17.701538 459.527189 18.506154 459.567094 19.310769 459.606993 20.115385 459.646884 20.920000 459.686768 21.724615 459.726644 22.529231 459.766510 23.333846 459.806366 24.138462 459.846211 24.943077 459.886044 25.747692 459.925865 26.552308 459.965672 27.356923 460.005465 28.161538 460.045244 28.966154 460.085006 29.770769 460.124753 30.575385 460.164482 31.380000 460.204193 32.184615 460.243886 32.989231 460.283559 33.793846 460.323211 34.598462 460.362843 35.403077 460.402452 36.207692 460.442039 37.012308 460.481603 37.816923 460.521142 38.621538 460.560656 39.426154 460.600144 40.230769 460.639606 41.035385 460.679041 41.840000 460.718447 42.644615 460.757824 43.449231 460.797172 44.253846 460.836489 45.058462 460.875775 45.863077 460.915029 46.667692 460.954250 47.472308 460.993437 48.276923 461.032590 49.081538 461.071708 49.886154 461.110790 50.690769 461.149835 51.495385 461.188842 52.300000 461.227812 53.104615 461.266742 53.909231 461.305632 54.713846 461.344482 55.518462 461.383290 56.323077 461.422056 57.127692 461.460779 57.932308 461.499458 58.736923 461.538092 59.541538 461.576682 60.346154 461.615225 61.150769 461.653721 61.955385 461.692170 62.760000 461.730570 63.564615 461.768920 64.369231 461.807221 65.173846 461.845471 65.978462 461.883669 66.783077 461.921815 67.587692 461.959908 68.392308 461.997947 69.196923 462.035931 70.001538 462.073860 70.806154 462.111732 71.610769 462.149547 72.415385 462.187304 73.220000 462.225003 74.024615 462.262642 74.829231 462.300221 75.633846 462.337740 76.438462 462.375196 77.243077 462.412590 78.047692 462.449920 78.852308 462.487187 79.656923 462.524388 80.461538 462.561524 81.266154 462.598593 82.070769 462.635595 82.875385 462.672529 83.680000 462.709394 84.484615 462.746190 85.289231 462.782915 86.093846 462.819570 86.898462 462.856152 87.703077 462.892661 88.507692 462.929097 89.312308 462.965459 90.116923 463.001746 90.921538 463.037957 91.726154 463.074091 92.530769 463.110148 93.335385 463.146126 94.140000 463.182026 94.944615 463.217846 95.749231 463.253585 96.553846 463.289243 97.358462 463.324819 98.163077 463.360312 98.967692 463.395722 99.772308 463.431047 100.576923 463.466287 101.381538 463.501440 102.186154 463.536507 102.990769 463.571487 103.795385 463.606378 104.600000 463.641180 105.404615 463.675892 106.209231 463.710513 107.013846 463.745043 107.818462 463.779481 108.623077 463.813825 109.427692 463.848076 110.232308 463.882232 111.036923 463.916293 111.841538 463.950257 112.646154 463.984125 113.450769 464.017895 114.255385 464.051566 115.060000 464.085138 115.864615 464.118610 116.669231 464.151981 117.473846 464.185251 118.278462 464.218418 119.083077 464.251482 119.887692 464.284442 120.692308 464.317297 121.496923 464.350046 122.301538 464.382690 123.106154 464.415226 123.910769 464.447654 124.715385 464.479973 125.520000 464.512184 126.324615 464.544283 127.129231 464.576272 127.933846 464.608149 128.738462 464.639914 129.543077 464.671565 130.347692 464.703102 131.152308 464.734524 131.956923 464.765830 132.761538 464.797020 133.566154 464.828092 134.370769 464.859046 135.175385 464.889882 135.980000 464.920598 136.784615 464.951194 137.589231 464.981668 138.393846 465.012020 139.198462 465.042250 140.003077 465.072356 140.807692 465.102338 141.612308 465.132194 142.416923 465.161925 143.221538 465.191529 144.026154 465.221006 144.830769 465.250355 145.635385 465.279574 146.440000 465.308664 147.244615 465.337623 148.049231 465.366451 148.853846 465.395146 149.658462 465.423709 150.463077 465.452138 151.267692 465.480433 152.072308 465.508592 152.876923 465.536615 153.681538 465.564502 154.486154 465.592250 155.290769 465.619861 156.095385 465.647332 156.900000 465.674663 157.704615 465.701854 158.509231 465.728903 159.313846 465.755810 160.118462 465.782573 160.923077 465.809193 161.727692 465.835668 162.532308 465.861998 163.336923 465.888182 164.141538 465.914218 164.946154 465.940107 165.750769 465.965847 166.555385 465.991438 167.360000 466.016879 168.164615 466.042169 168.969231 466.067307 169.773846 466.092293 170.578462 466.117125 171.383077 466.141803 172.187692 466.166327 172.992308 466.190695 173.796923 466.214907 174.601538 466.238961 175.406154 466.262858 176.210769 466.286596 177.015385 466.310174 177.820000 466.333592 178.624615 466.356849 179.429231 466.379945 180.233846 466.402877 181.038462 466.425646 181.843077 466.448251 182.647692 466.470691 183.452308 466.492965 184.256923 466.515073 185.061538 466.537014 185.866154 466.558786 186.670769 466.580389 187.475385 466.601823 188.280000 466.623086 189.084615 466.644178 189.889231 466.665099 190.693846 466.685846 191.498462 466.706419 192.303077 466.726819 193.107692 466.747043 193.912308 466.767091 194.716923 466.786963 195.521538 466.806657 196.326154 466.826173 197.130769 466.845510 197.935385 466.864667 198.740000 466.883643 199.544615 466.902438 200.349231 466.921051 201.153846 466.939481 201.958462 466.957727 202.763077 466.975788 203.567692 466.993665 204.372308 467.011355 205.176923 467.028858 205.981538 467.046174 206.786154 467.063301 207.590769 467.080239 208.395385 467.096987 209.200000 467.113545 210.004615 467.129911 210.809231 467.146084 211.613846 467.162064 212.418462 467.177851 213.223077 467.193442 214.027692 467.208839 214.832308 467.224042 215.636923 467.239053 216.441538 467.253873 217.246154 467.268504 218.050769 467.282949 218.855385 467.297208 219.660000 467.311283 220.464615 467.325176 221.269231 467.338888 222.073846 467.352422 222.878462 467.365779 223.683077 467.378960 224.487692 467.391968 225.292308 467.404803 226.096923 467.417468 226.901538 467.429964 227.706154 467.442293 228.510769 467.454457 229.315385 467.466457 230.120000 467.478294 230.924615 467.489972 231.729231 467.501490 232.533846 467.512852 233.338462 467.524058 234.143077 467.535110 234.947692 467.546011 235.752308 467.556760 236.556923 467.567362 237.361538 467.577816 238.166154 467.588124 238.970769 467.598289 239.775385 467.608312 240.580000 467.618194 241.384615 467.627938 242.189231 467.637545 242.993846 467.647016 243.798462 467.656353 244.603077 467.665559 245.407692 467.674634 246.212308 467.683580 247.016923 467.692400 247.821538 467.701093 248.626154 467.709664 249.430769 467.718112 250.235385 467.726440 251.040000 467.734649 251.844615 467.742741 252.649231 467.750717 253.453846 467.758580 254.258462 467.766331 255.063077 467.773972 255.867692 467.781503 256.672308 467.788928 257.476923 467.796248 258.281538 467.803464 259.086154 467.810577 259.890769 467.817591 260.695385 467.824505 261.500000 467.831323 262.304615 467.838045 263.109231 467.844674 263.913846 467.851211 264.718462 467.857657 265.523077 467.864015 266.327692 467.870285 267.132308 467.876471 267.936923 467.882572 268.741538 467.888592 269.546154 467.894531 270.350769 467.900392 271.155385 467.906175 271.960000 467.911884 272.764615 467.917518 273.569231 467.923081 274.373846 467.928573 275.178462 467.933997 275.983077 467.939354 276.787692 467.944645 277.592308 467.949873 278.396923 467.955039 279.201538 467.960144 280.006154 467.965191 280.810769 467.970181 281.615385 467.975115 282.420000 467.979996 283.224615 467.984825 284.029231 467.989604 284.833846 467.994334 285.638462 467.999017 286.443077 468.003655 287.247692 468.008249 288.052308 468.012801 288.856923 468.017313 289.661538 468.021786 290.466154 468.026223 291.270769 468.030624 292.075385 468.034991 292.880000 468.039327 293.684615 468.043632 294.489231 468.047909 295.293846 468.052159 296.098462 468.056383 296.903077 468.060584 297.707692 468.064763 298.512308 468.068921 299.316923 468.073061 300.121538 468.077185 300.926154 468.081292 301.730769 468.085387 302.535385 468.089469 303.340000 468.093541 304.144615 468.097605 304.949231 468.101661 305.753846 468.105713 306.558462 468.109761 307.363077 468.113807 308.167692 468.117852 308.972308 468.121899 309.776923 468.125950 310.581538 468.130005 311.386154 468.134066 312.190769 468.138135 312.995385 468.142215 313.800000 468.146305 314.604615 468.150409 315.409231 468.154528 316.213846 468.158663 317.018462 468.162816 317.823077 468.166989 318.627692 468.171184 319.432308 468.175401 320.236923 468.179643 321.041538 468.183912 321.846154 468.188209 322.650769 468.192536 323.455385 468.196894 324.260000 468.201285 325.064615 468.205711 325.869231 468.210174 326.673846 468.214675 327.478462 468.219215 328.283077 468.223797 329.087692 468.228422 329.892308 468.233092 330.696923 468.237809 331.501538 468.242573 332.306154 468.247388 333.110769 468.252254 333.915385 468.257173 334.720000 468.262147 335.524615 468.267177 336.329231 468.272266 337.133846 468.277414 337.938462 468.282624 338.743077 468.287897 339.547692 468.293235 340.352308 468.298639 341.156923 468.304112 341.961538 468.309654 342.766154 468.315268 343.570769 468.320955 344.375385 468.326717 345.180000 468.332556 345.984615 468.338472 346.789231 468.344469 347.593846 468.350547 348.398462 468.356708 349.203077 468.362954 350.007692 468.369287 350.812308 468.375707 351.616923 468.382218 352.421538 468.388820 353.226154 468.395516 354.030769 468.402306 354.835385 468.409193 355.640000 468.416178 356.444615 468.423263 357.249231 468.430449 358.053846 468.437739 358.858462 468.445133 359.663077 468.452634 360.467692 468.460244 361.272308 468.467963 362.076923 468.475794 362.881538 468.483738 363.686154 468.491797 364.490769 468.499972 365.295385 468.508266 366.100000 468.516679 366.904615 468.525214 367.709231 468.533873 368.513846 468.542656 369.318462 468.551566 370.123077 468.560604 370.927692 468.569772 371.732308 468.579072 372.536923 468.588505 373.341538 468.598072 374.146154 468.607777 374.950769 468.617619 375.755385 468.627602 376.560000 468.637726 377.364615 468.647993 378.169231 468.658406 378.973846 468.668965 379.778462 468.679672 380.583077 468.690529 381.387692 468.701538 382.192308 468.712700 382.996923 468.724017 383.801538 468.735490 384.606154 468.747122 385.410769 468.758914 386.215385 468.770867 387.020000 468.782984 387.824615 468.795266 388.629231 468.807714 389.433846 468.820330 390.238462 468.833117 391.043077 468.846075 391.847692 468.859206 392.652308 468.872513 393.456923 468.885996 394.261538 468.899657 395.066154 468.913498 395.870769 468.927521 396.675385 468.941728 397.480000 468.956119 398.284615 468.970697 399.089231 468.985463 399.893846 469.000419 400.698462 469.015567 401.503077 469.030908 402.307692 469.046444 403.112308 469.062177 403.916923 469.078108 404.721538 469.094239 405.526154 469.110572 406.330769 469.127108 407.135385 469.143849 407.940000 469.160796 408.744615 469.177953 409.549231 469.195319 410.353846 469.212896 411.158462 469.230687 411.963077 469.248694 412.767692 469.266916 413.572308 469.285357 414.376923 469.304019 415.181538 469.322901 415.986154 469.342004 416.790769 469.361327 417.595385 469.380870 418.400000 469.400630 419.204615 469.420607 420.009231 469.440801 420.813846 469.461211 421.618462 469.481835 422.423077 469.502672 423.227692 469.523723 424.032308 469.544985 424.836923 469.566459 425.641538 469.588142 426.446154 469.610035 427.250769 469.632136 428.055385 469.654445 428.860000 469.676961 429.664615 469.699682 430.469231 469.722608 431.273846 469.745737 432.078462 469.769070 432.883077 469.792606 433.687692 469.816342 434.492308 469.840279 435.296923 469.864415 436.101538 469.888750 436.906154 469.913283 437.710769 469.938012 438.515385 469.962938 439.320000 469.988059 440.124615 470.013373 440.929231 470.038882 441.733846 470.064582 442.538462 470.090474 443.343077 470.116557 444.147692 470.142829 444.952308 470.169291 445.756923 470.195940 446.561538 470.222777 447.366154 470.249799 448.170769 470.277007 448.975385 470.304400 449.780000 470.331976 450.584615 470.359734 451.389231 470.387675 452.193846 470.415796 452.998462 470.444098 453.803077 470.472578 454.607692 470.501237 455.412308 470.530073 456.216923 470.559085 457.021538 470.588274 457.826154 470.617636 458.630769 470.647173 459.435385 470.676882 460.240000 470.706764 461.044615 470.736817 461.849231 470.767040 462.653846 470.797432 463.458462 470.827993 464.263077 470.858721 465.067692 470.889616 465.872308 470.920677 466.676923 470.951903 467.481538 470.983293 468.286154 471.014846 469.090769 471.046561 469.895385 471.078438 470.700000 471.110475 471.504615 471.142672 472.309231 471.175027 473.113846 471.207541 473.918462 471.240211 474.723077 471.273037 475.527692 471.306019 476.332308 471.339155 477.136923 471.372444 477.941538 471.405886 478.746154 471.439479 479.550769 471.473223 480.355385 471.507117 481.160000 471.541160 481.964615 471.575352 482.769231 471.609690 483.573846 471.644174 484.378462 471.678804 485.183077 471.713579 485.987692 471.748497 486.792308 471.783558 487.596923 471.818761 488.401538 471.854105 489.206154 471.889589 490.010769 471.925212 490.815385 471.960974 491.620000 471.996873 492.424615 472.032908 493.229231 472.069079 494.033846 472.105385 494.838462 472.141825 495.643077 472.178398 496.447692 472.215103 497.252308 472.251939 498.056923 472.288906 498.861538 472.326002 499.666154 472.363226 500.470769 472.400579 501.275385 472.438058 502.080000 472.475663 502.884615 472.513393 503.689231 472.551247 504.493846 472.589225 505.298462 472.627324 506.103077 472.665546 506.907692 472.703888 507.712308 472.742349 508.516923 472.780930 509.321538 472.819628 510.126154 472.858444 510.930769 472.897375 511.735385 472.936422 512.540000 472.975583 513.344615 473.014858 514.149231 473.054245 514.953846 473.093745 515.758462 473.133355 516.563077 473.173074 517.367692 473.212903 518.172308 473.252841 518.976923 473.292885 519.781538 473.333036 520.586154 473.373292 521.390769 473.413653 522.195385 473.454118 523.000000 473.494686 523.804615 473.535355 524.609231 473.576126 525.413846 473.616997 526.218462 473.657967 527.023077 473.699036 527.827692 473.740202 528.632308 473.781465 529.436923 473.822823 530.241538 473.864277 531.046154 473.905824 531.850769 473.947465 532.655385 473.989198 533.460000 474.031022 534.264615 474.072937 535.069231 474.114941 535.873846 474.157034 536.678462 474.199214 537.483077 474.241482 538.287692 474.283835 539.092308 474.326274 539.896923 474.368797 540.701538 474.411403 541.506154 474.454092 542.310769 474.496862 543.115385 474.539713 543.920000 474.582644 544.724615 474.625654 545.529231 474.668741 546.333846 474.711906 547.138462 474.755147 547.943077 474.798464 548.747692 474.841855 549.552308 474.885319 550.356923 474.928857 551.161538 474.972466 551.966154 475.016146 552.770769 475.059896 553.575385 475.103716 554.380000 475.147603 555.184615 475.191558 555.989231 475.235580 556.793846 475.279667 557.598462 475.323819 558.403077 475.368034 559.207692 475.412313 560.012308 475.456654 560.816923 475.501055 561.621538 475.545518 562.426154 475.590039 563.230769 475.634619 564.035385 475.679257 564.840000 475.723952 565.644615 475.768702 566.449231 475.813507 567.253846 475.858367 568.058462 475.903280 568.863077 475.948245 569.667692 475.993261 570.472308 476.038328 571.276923 476.083445 572.081538 476.128610 572.886154 476.173823 573.690769 476.219083 574.495385 476.264390 575.300000 476.309741 576.104615 476.355137 576.909231 476.400577 577.713846 476.446059 578.518462 476.491582 579.323077 476.537147 580.127692 476.582751 580.932308 476.628394 581.736923 476.674076 582.541538 476.719795 583.346154 476.765550 584.150769 476.811340 584.955385 476.857165 585.760000 476.903024 586.564615 476.948916 587.369231 476.994839 588.173846 477.040794 588.978462 477.086779 589.783077 477.132793 590.587692 477.178835 591.392308 477.224905 592.196923 477.271001 593.001538 477.317123 593.806154 477.363270 594.610769 477.409441 595.415385 477.455635 596.220000 477.501852 597.024615 477.548089 597.829231 477.594347 598.633846 477.640624 599.438462 477.686920 600.243077 477.733234 601.047692 477.779564 601.852308 477.825911 602.656923 477.872273 603.461538 477.918648 604.266154 477.965037 605.070769 478.011439 605.875385 478.057852 606.680000 478.104276 607.484615 478.150709 608.289231 478.197151 609.093846 478.243602 609.898462 478.290059 610.703077 478.336523 611.507692 478.382991 612.312308 478.429465 613.116923 478.475942 613.921538 478.522421 614.726154 478.568902 615.530769 478.615385 615.530769 488.000000" /></g></g><g class="titles"><text class="title plot_title" x="400.0" y="26">Gender</text><text class="title" x="466.2" y="580">Years</text><text class="title" transform="rotate(-90 72.400000 290.000000)" x="72.39999999999999" y="316.0">Number of Patients</text></g><g class="plot overlay" transform="translate(152, 46)"><g class="series serie-0 color-0"><g class="dots"><circle class="dot reactive tooltip-trigger" cx="12.06923076923077" cy="9.384615384615358" r="2.5" /><desc class="value">8481</desc><desc class="x ">12.06923076923077</desc><desc class="y ">9.384615384615358</desc><desc class="x_label">2555</desc></g><g class="dots"><circle class="dot reactive tooltip-trigger" cx="213.22307692307692" cy="110.38189829749558" r="2.5" /><desc class="value">6854</desc><desc class="x ">213.22307692307692</desc><desc class="y ">110.38189829749558</desc><desc class="x_label">2556</desc></g><g class="dots"><circle class="dot reactive tooltip-trigger" cx="414.37692307692305" cy="163.45668433960532" r="2.5" /><desc class="value">5999</desc><desc class="x left">414.37692307692305</desc><desc class="y left">163.45668433960532</desc><desc class="x_label">2557</desc></g><g class="dots"><circle class="dot reactive tooltip-trigger" cx="615.5307692307692" cy="241.3617796411817" r="2.5" /><desc class="value">4744</desc><desc class="x left">615.5307692307692</desc><desc class="y left">241.3617796411817</desc><desc class="x_label">2558</desc></g></g><g class="series serie-1 color-1"><g class="dots"><circle class="dot reactive tooltip-trigger" cx="12.06923076923077" cy="459.2477433930007" r="2.5" /><desc class="value">1234</desc><desc class="x top">12.06923076923077</desc><desc class="y top">459.2477433930007</desc><desc class="x_label">2555</desc></g><g class="dots"><circle class="dot reactive tooltip-trigger" cx="213.22307692307692" cy="467.19344235603" r="2.5" /><desc class="value">1106</desc><desc class="x top">213.22307692307692</desc><desc class="y top">467.19344235603</desc><desc class="x_label">2556</desc></g><g class="dots"><circle class="dot reactive tooltip-trigger" cx="414.37692307692305" cy="469.30401864308465" r="2.5" /><desc class="value">1072</desc><desc class="x left top">414.37692307692305</desc><desc class="y left top">469.30401864308465</desc><desc class="x_label">2557</desc></g><g class="dots"><circle class="dot reactive tooltip-trigger" cx="615.5307692307692" cy="478.61538461538464" r="2.5" /><desc class="value">922</desc><desc class="x left top">615.5307692307692</desc><desc class="y left top">478.61538461538464</desc><desc class="x_label">2558</desc></g></g></g><g class="plot text-overlay" transform="translate(152, 46)"><g class="series serie-0 color-0" /><g class="series serie-1 color-1" /></g><g class="plot tooltip-overlay" transform="translate(152, 46)"><g class="tooltip" style="opacity: 0" transform="translate(0 0)"><rect class="tooltip-box" height="0" rx="0" ry="0" width="0" /><g class="text" /></g></g><g class="legends" transform="translate(10, 56)"><g class="legend reactive activate-serie" id="activate-serie-0"><rect class="color-0 reactive" height="12" width="12" x="0.0" y="1.0" /><text x="17.0" y="11.2">Male</text></g><g class="legend reactive activate-serie" id="activate-serie-1"><rect class="color-1 reactive" height="12" width="12" x="0.0" y="22.0" /><text x="17.0" y="32.2">Female</text></g></g><g class="legends" transform="translate(790, 56)" /></g></svg>