<?xml version='1.0' encoding='utf-8'?>
<svg xmlns:xlink="http://www.w3.org/1999/xlink" class="pygal-chart" id="chart-09e3fefa-65c8-469f-a286-5b4c7e5de17c" viewBox="0 0 800 600" xmlns="http://www.w3.org/2000/svg"><!--Generated with pygal 2.3.0 (etree) ©Kozea 2012-2016 on 2016-12-08--><!--http://pygal.org--><!--http://github.com/Kozea/pygal--><defs><style type="text/css">#chart-09e3fefa-65c8-469f-a286-5b4c7e5de17c{-webkit-user-select:none;-webkit-font-smoothing:antialiased;font-family:Consolas,"Liberation Mono",Menlo,Courier,monospace}#chart-09e3fefa-65c8-469f-a286-5b4c7e5de17c .title{font-family:Consolas,"Liberation Mono",Menlo,Courier,monospace;font-size:16px}#chart-09e3fefa-65c8-469f-a286-5b4c7e5de17c .legends .legend text{font-family:Consolas,"Liberation Mono",Menlo,Courier,monospace;font-size:14px}#chart-09e3fefa-65c8-469f-a286-5b4c7e5de17c .axis text{font-family:Consolas,"Liberation Mono",Menlo,Courier,monospace;font-size:10px}#chart-09e3fefa-65c8-469f-a286-5b4c7e5de17c .axis text.major{font-family:Consolas,"Liberation Mono",Menlo,Courier,monospace;font-size:10px}#chart-09e3fefa-65c8-469f-a286-5b4c7e5de17c .text-overlay text.value{font-family:Consolas,"Liberation Mono",Menlo,Courier,monospace;font-size:16px}#chart-09e3fefa-65c8-469f-a286-5b4c7e5de17c .text-overlay text.label{font-family:Consolas,"Liberation Mono",Menlo,Courier,monospace;font-size:10px}#chart-09e3fefa-65c8-469f-a286-5b4c7e5de17c .tooltip{font-family:Consolas,"Liberation Mono",Menlo,Courier,monospace;font-size:14px}#chart-09e3fefa-65c8-469f-a286-5b4c7e5de17c text.no_data{font-family:Consolas,"Liberation Mono",Menlo,Courier,monospace;font-size:64px}
#chart-09e3fefa-65c8-469f-a286-5b4c7e5de17c{background-color:rgba(249,249,249,1)}#chart-09e3fefa-65c8-469f-a286-5b4c7e5de17c path,#chart-09e3fefa-65c8-469f-a286-5b4c7e5de17c line,#chart-09e3fefa-65c8-469f-a286-5b4c7e5de17c rect,#chart-09e3fefa-65c8-469f-a286-5b4c7e5de17c circle{-webkit-transition:150ms;-moz-transition:150ms;transition:150ms}#chart-09e3fefa-65c8-469f-a286-5b4c7e5de17c .graph &gt; .background{fill:rgba(249,249,249,1)}#chart-09e3fefa-65c8-469f-a286-5b4c7e5de17c .plot &gt; .background{fill:rgba(255,255,255,1)}#chart-09e3fefa-65c8-469f-a286-5b4c7e5de17c .graph{fill:rgba(0,0,0,.87)}#chart-09e3fefa-65c8-469f-a286-5b4c7e5de17c text.no_data{fill:rgba(0,0,0,1)}#chart-09e3fefa-65c8-469f-a286-5b4c7e5de17c .title{fill:rgba(0,0,0,1)}#chart-09e3fefa-65c8-469f-a286-5b4c7e5de17c .legends .legend text{fill:rgba(0,0,0,.87)}#chart-09e3fefa-65c8-469f-a286-5b4c7e5de17c .legends .legend:hover text{fill:rgba(0,0,0,1)}#chart-09e3fefa-65c8-469f-a286-5b4c7e5de17c .axis .line{stroke:rgba(0,0,0,1)}#chart-09e3fefa-65c8-469f-a286-5b4c7e5de17c .axis .guide.line{stroke:rgba(0,0,0,.54)}#chart-09e3fefa-65c8-469f-a286-5b4c7e5de17c .axis .major.line{stroke:rgba(0,0,0,.87)}#chart-09e3fefa-65c8-469f-a286-5b4c7e5de17c .axis text.major{fill:rgba(0,0,0,1)}#chart-09e3fefa-65c8-469f-a286-5b4c7e5de17c .axis.y .guides:hover .guide.line,#chart-09e3fefa-65c8-469f-a286-5b4c7e5de17c .line-graph .axis.x .guides:hover .guide.line,#chart-09e3fefa-65c8-469f-a286-5b4c7e5de17c .stackedline-graph .axis.x .guides:hover .guide.line,#chart-09e3fefa-65c8-469f-a286-5b4c7e5de17c .xy-graph .axis.x .guides:hover .guide.line{stroke:rgba(0,0,0,1)}#chart-09e3fefa-65c8-469f-a286-5b4c7e5de17c .axis .guides:hover text{fill:rgba(0,0,0,1)}#chart-09e3fefa-65c8-469f-a286-5b4c7e5de17c .reactive{fill-opacity:.7;stroke-opacity:.8}#chart-09e3fefa-65c8-469f-a286-5b4c7e5de17c .ci{stroke:rgba(0,0,0,.87)}#chart-09e3fefa-65c8-469f-a286-5b4c7e5de17c .reactive.active,#chart-09e3fefa-65c8-469f-a286-5b4c7e5de17c .active .reactive{fill-opacity:.8;stroke-opacity:.9;stroke-width:4}#chart-09e3fefa-65c8-469f-a286-5b4c7e5de17c .ci .reactive.active{stroke-width:1.5}#chart-09e3fefa-65c8-469f-a286-5b4c7e5de17c .series text{fill:rgba(0,0,0,1)}#chart-09e3fefa-65c8-469f-a286-5b4c7e5de17c .tooltip rect{fill:rgba(255,255,255,1);stroke:rgba(0,0,0,1);-webkit-transition:opacity 150ms;-moz-transition:opacity 150ms;transition:opacity 150ms}#chart-09e3fefa-65c8-469f-a286-5b4c7e5de17c .tooltip .label{fill:rgba(0,0,0,.87)}#chart-09e3fefa-65c8-469f-a286-5b4c7e5de17c .tooltip .label{fill:rgba(0,0,0,.87)}#chart-09e3fefa-65c8-469f-a286-5b4c7e5de17c .tooltip .legend{font-size:.8em;fill:rgba(0,0,0,.54)}#chart-09e3fefa-65c8-469f-a286-5b4c7e5de17c .tooltip .x_label{font-size:.6em;fill:rgba(0,0,0,1)}#chart-09e3fefa-65c8-469f-a286-5b4c7e5de17c .tooltip .xlink{font-size:.5em;text-decoration:underline}#chart-09e3fefa-65c8-469f-a286-5b4c7e5de17c .tooltip .value{font-size:1.5em}#chart-09e3fefa-65c8-469f-a286-5b4c7e5de17c .bound{font-size:.5em}#chart-09e3fefa-65c8-469f-a286-5b4c7e5de17c .max-value{font-size:.75em;fill:rgba(0,0,0,.54)}#chart-09e3fefa-65c8-469f-a286-5b4c7e5de17c .map-element{fill:rgba(255,255,255,1);stroke:rgba(0,0,0,.54) !important}#chart-09e3fefa-65c8-469f-a286-5b4c7e5de17c .map-element .reactive{fill-opacity:inherit;stroke-opacity:inherit}#chart-09e3fefa-65c8-469f-a286-5b4c7e5de17c .color-0,#chart-09e3fefa-65c8-469f-a286-5b4c7e5de17c .color-0 a:visited{stroke:#F44336;fill:#F44336}#chart-09e3fefa-65c8-469f-a286-5b4c7e5de17c .color-1,#chart-09e3fefa-65c8-469f-a286-5b4c7e5de17c .color-1 a:visited{stroke:#3F51B5;fill:#3F51B5}#chart-09e3fefa-65c8-469f-a286-5b4c7e5de17c .text-overlay .color-0 text{fill:black}#chart-09e3fefa-65c8-469f-a286-5b4c7e5de17c .text-overlay .color-1 text{fill:black}#chart-09e3fefa-65c8-469f-a286-5b4c7e5de17c .series{stroke-width:3}#chart-09e3fefa-65c8-469f-a286-5b4c7e5de17c .series.serie-0{stroke-width:3}#chart-09e3fefa-65c8-469f-a286-5b4c7e5de17c .series.serie-1{stroke-width:3}
#chart-09e3fefa-65c8-469f-a286-5b4c7e5de17c text.no_data{text-anchor:middle}#chart-09e3fefa-65c8-469f-a286-5b4c7e5de17c .guide.line{fill:none}#chart-09e3fefa-65c8-469f-a286-5b4c7e5de17c .centered{text-anchor:middle}#chart-09e3fefa-65c8-469f-a286-5b4c7e5de17c .title{text-anchor:middle}#chart-09e3fefa-65c8-469f-a286-5b4c7e5de17c .legends .legend text{fill-opacity:1}#chart-09e3fefa-65c8-469f-a286-5b4c7e5de17c .axis.x text{text-anchor:middle}#chart-09e3fefa-65c8-469f-a286-5b4c7e5de17c .axis.x:not(.web) text[transform]{text-anchor:start}#chart-09e3fefa-65c8-469f-a286-5b4c7e5de17c .axis.x:not(.web) text[transform].backwards{text-anchor:end}#chart-09e3fefa-65c8-469f-a286-5b4c7e5de17c .axis.y text{text-anchor:end}#chart-09e3fefa-65c8-469f-a286-5b4c7e5de17c .axis.y text[transform].backwards{text-anchor:start}#chart-09e3fefa-65c8-469f-a286-5b4c7e5de17c .axis.y2 text{text-anchor:start}#chart-09e3fefa-65c8-469f-a286-5b4c7e5de17c .axis.y2 text[transform].backwards{text-anchor:end}#chart-09e3fefa-65c8-469f-a286-5b4c7e5de17c .axis .guide.line{stroke-dasharray:4,4}#chart-09e3fefa-65c8-469f-a286-5b4c7e5de17c .axis .major.guide.line{stroke-dasharray:6,6}#chart-09e3fefa-65c8-469f-a286-5b4c7e5de17c .horizontal .axis.y .guide.line,#chart-09e3fefa-65c8-469f-a286-5b4c7e5de17c .horizontal .axis.y2 .guide.line,#chart-09e3fefa-65c8-469f-a286-5b4c7e5de17c .vertical .axis.x .guide.line{opacity:0}#chart-09e3fefa-65c8-469f-a286-5b4c7e5de17c .horizontal .axis.always_show .guide.line,#chart-09e3fefa-65c8-469f-a286-5b4c7e5de17c .vertical .axis.always_show .guide.line{opacity:1 !important}#chart-09e3fefa-65c8-469f-a286-5b4c7e5de17c .axis.y .guides:hover .guide.line,#chart-09e3fefa-65c8-469f-a286-5b4c7e5de17c .axis.y2 .guides:hover .guide.line,#chart-09e3fefa-65c8-469f-a286-5b4c7e5de17c .axis.x .guides:hover .guide.line{opacity:1}#chart-09e3fefa-65c8-469f-a286-5b4c7e5de17c .axis .guides:hover text{opacity:1}#chart-09e3fefa-65c8-469f-a286-5b4c7e5de17c .nofill{fill:none}#chart-09e3fefa-65c8-469f-a286-5b4c7e5de17c .subtle-fill{fill-opacity:.2}#chart-09e3fefa-65c8-469f-a286-5b4c7e5de17c .dot{stroke-width:1px;fill-opacity:1}#chart-09e3fefa-65c8-469f-a286-5b4c7e5de17c .dot.active{stroke-width:5px}#chart-09e3fefa-65c8-469f-a286-5b4c7e5de17c .dot.negative{fill:transparent}#chart-09e3fefa-65c8-469f-a286-5b4c7e5de17c text,#chart-09e3fefa-65c8-469f-a286-5b4c7e5de17c tspan{stroke:none !important}#chart-09e3fefa-65c8-469f-a286-5b4c7e5de17c .series text.active{opacity:1}#chart-09e3fefa-65c8-469f-a286-5b4c7e5de17c .tooltip rect{fill-opacity:.95;stroke-width:.5}#chart-09e3fefa-65c8-469f-a286-5b4c7e5de17c .tooltip text{fill-opacity:1}#chart-09e3fefa-65c8-469f-a286-5b4c7e5de17c .showable{visibility:hidden}#chart-09e3fefa-65c8-469f-a286-5b4c7e5de17c .showable.shown{visibility:visible}#chart-09e3fefa-65c8-469f-a286-5b4c7e5de17c .gauge-background{fill:rgba(229,229,229,1);stroke:none}#chart-09e3fefa-65c8-469f-a286-5b4c7e5de17c .bg-lines{stroke:rgba(249,249,249,1);stroke-width:2px}</style><script type="text/javascript">window.pygal = window.pygal || {};window.pygal.config = window.pygal.config || {};window.pygal.config['09e3fefa-65c8-469f-a286-5b4c7e5de17c'] = {"style": {"background": "rgba(249, 249, 249, 1)", "value_colors": [], "value_label_font_size": 10, "transition": "150ms", "foreground_strong": "rgba(0, 0, 0, 1)", "major_guide_stroke_dasharray": "6,6", "major_label_font_family": "Consolas, \"Liberation Mono\", Menlo, Courier, monospace", "legend_font_size": 14, "tooltip_font_family": "Consolas, \"Liberation Mono\", Menlo, Courier, monospace", "font_family": "Consolas, \"Liberation Mono\", Menlo, Courier, monospace", "value_font_size": 16, "no_data_font_size": 64, "stroke_opacity_hover": ".9", "legend_font_family": "Consolas, \"Liberation Mono\", Menlo, Courier, monospace", "foreground_subtle": "rgba(0, 0, 0, .54)", "no_data_font_family": "Consolas, \"Liberation Mono\", Menlo, Courier, monospace", "opacity_hover": ".8", "colors": ["#F44336", "#3F51B5", "#009688", "#FFC107", "#FF5722", "#9C27B0", "#03A9F4", "#8BC34A", "#FF9800", "#E91E63", "#2196F3", "#4CAF50", "#FFEB3B", "#673AB7", "#00BCD4", "#CDDC39", "#9E9E9E", "#607D8B"], "stroke_opacity": ".8", "value_background": "rgba(229, 229, 229, 1)", "plot_background": "rgba(255, 255, 255, 1)", "value_label_font_family": "Consolas, \"Liberation Mono\", Menlo, Courier, monospace", "label_font_family": "Consolas, \"Liberation Mono\", Menlo, Courier, monospace", "guide_stroke_dasharray": "4,4", "label_font_size": 10, "major_label_font_size": 10, "opacity": ".7", "value_font_family": "Consolas, \"Liberation Mono\", Menlo, Courier, monospace", "tooltip_font_size": 14, "title_font_size": 16, "ci_colors": [], "foreground": "rgba(0, 0, 0, .87)", "title_font_family": "Consolas, \"Liberation Mono\", Menlo, Courier, monospace"}, "pretty_print": false, "dots_size": 2.5, "interpolation_precision": 250, "show_legend": true, "css": ["file://style.css", "file://graph.css"], "defs": [], "js": ["//kozea.github.io/pygal.js/2.0.x/pygal-tooltips.min.js"], "truncate_legend": null, "box_mode": "extremes", "y_labels_major": null, "x_label_rotation": 0, "zero": 0, "fill": true, "stroke": true, "explicit_size": false, "show_dots": true, "legend_at_bottom": false, "formatter": null, "interpolation_parameters": {}, "print_values_position": "center", "max_scale": 16, "tooltip_border_radius": 0, "margin_top": null, "x_labels_major_count": null, "x_labels_major_every": null, "title": "\u0e40\u0e1e\u0e28", "show_y_labels": true, "height": 600, "no_prefix": false, "legends": ["\u0e0a\u0e32\u0e22", "\u0e2b\u0e0d\u0e34\u0e07"], "secondary_range": null, "inverse_y_axis": false, "y_labels_major_every": null, "classes": ["pygal-chart"], "inner_radius": 0, "x_labels_major": null, "print_values": false, "print_labels": false, "truncate_label": null, "allow_interruptions": false, "half_pie": false, "show_x_labels": true, "order_min": null, "y_labels_major_count": null, "legend_box_size": 12, "show_x_guides": false, "rounded_bars": null, "y_label_rotation": 0, "dynamic_print_values": false, "show_minor_y_labels": true, "show_y_guides": true, "disable_xml_declaration": false, "stack_from_top": false, "y_labels": null, "legend_at_bottom_columns": null, "y_title": "\u0e08\u0e33\u0e19\u0e27\u0e19\u0e1c\u0e39\u0e49\u0e1b\u0e48\u0e27\u0e22", "force_uri_protocol": "https", "margin_left": null, "show_only_major_dots": false, "logarithmic": false, "margin_bottom": null, "strict": false, "margin_right": null, "missing_value_fill_truncation": "x", "x_labels": ["2555", "2556", "2557", "2558"], "min_scale": 4, "tooltip_fancy_mode": true, "include_x_axis": false, "interpolate": "cubic", "range": null, "no_data_text": "No data", "margin": 20, "stroke_style": {"width": 3}, "width": 800, "x_title": "\u0e1b\u0e35", "print_zeroes": true, "xrange": null, "show_minor_x_labels": true, "spacing": 10}</script><script type="text/javascript" xlink:href="https://kozea.github.io/pygal.js/2.0.x/pygal-tooltips.min.js" /></defs><title>เพศ</title><g class="graph line-graph vertical"><rect class="background" height="600" width="800" x="0" y="0" /><g class="plot" transform="translate(135, 46)"><rect class="background" height="488" width="644.4" x="0" y="0" /><g class="axis y"><path class="line" d="M0.000000 488.000000 h644.400000" /><g class="guides"><path class="guide line" d="M0.000000 473.773474 h644.400000" /><text class="" x="-5" y="477.27347430978864">1000</text><title>1000</title></g><g class="guides"><path class="guide line" d="M0.000000 411.697701 h644.400000" /><text class="" x="-5" y="415.19770116112227">2000</text><title>2000</title></g><g class="guides"><path class="guide line" d="M0.000000 349.621928 h644.400000" /><text class="" x="-5" y="353.1219280124559">3000</text><title>3000</title></g><g class="guides"><path class="guide line" d="M0.000000 287.546155 h644.400000" /><text class="" x="-5" y="291.04615486378947">4000</text><title>4000</title></g><g class="guides"><path class="major guide line" d="M0.000000 225.470382 h644.400000" /><text class="major" x="-5" y="228.9703817151231">5000</text><title>5000</title></g><g class="guides"><path class="guide line" d="M0.000000 163.394609 h644.400000" /><text class="" x="-5" y="166.89460856645667">6000</text><title>6000</title></g><g class="guides"><path class="guide line" d="M0.000000 101.318835 h644.400000" /><text class="" x="-5" y="104.8188354177903">7000</text><title>7000</title></g><g class="guides"><path class="guide line" d="M0.000000 39.243062 h644.400000" /><text class="" x="-5" y="42.743062269123925">8000</text><title>8000</title></g></g><g class="axis x"><g class="guides"><path class="line" d="M12.392308 0.000000 v488.000000" /><text class="" x="12.392307692307691" y="503.0">2555</text></g><g class="guides"><path class="guide line" d="M218.930769 0.000000 v488.000000" /><text class="" x="218.93076923076922" y="503.0">2556</text></g><g class="guides"><path class="guide line" d="M425.469231 0.000000 v488.000000" /><text class="" x="425.46923076923076" y="503.0">2557</text></g><g class="guides"><path class="guide line" d="M632.007692 0.000000 v488.000000" /><text class="" x="632.0076923076923" y="503.0">2558</text></g></g><g class="series serie-0 color-0"><path class="line reactive" d="M12.392308 488.000000 L12.392308 9.384615 13.218462 9.846342 14.044615 10.308064 14.870769 10.769774 15.696923 11.231468 16.523077 11.693139 17.349231 12.154783 18.175385 12.616394 19.001538 13.077965 19.827692 13.539493 20.653846 14.000970 21.480000 14.462392 22.306154 14.923754 23.132308 15.385048 23.958462 15.846271 24.784615 16.307416 25.610769 16.768477 26.436923 17.229451 27.263077 17.690329 28.089231 18.151109 28.915385 18.611782 29.741538 19.072345 30.567692 19.532792 31.393846 19.993116 32.220000 20.453314 33.046154 20.913378 33.872308 21.373303 34.698462 21.833085 35.524615 22.292716 36.350769 22.752193 37.176923 23.211509 38.003077 23.670658 38.829231 24.129636 39.655385 24.588436 40.481538 25.047053 41.307692 25.505482 42.133846 25.963717 42.960000 26.421753 43.786154 26.879583 44.612308 27.337203 45.438462 27.794606 46.264615 28.251788 47.090769 28.708742 47.916923 29.165464 48.743077 29.621947 49.569231 30.078187 50.395385 30.534177 51.221538 30.989912 52.047692 31.445386 52.873846 31.900595 53.700000 32.355532 54.526154 32.810191 55.352308 33.264569 56.178462 33.718657 57.004615 34.172452 57.830769 34.625948 58.656923 35.079139 59.483077 35.532019 60.309231 35.984584 61.135385 36.436827 61.961538 36.888743 62.787692 37.340326 63.613846 37.791572 64.440000 38.242473 65.266154 38.693026 66.092308 39.143223 66.918462 39.593061 67.744615 40.042532 68.570769 40.491633 69.396923 40.940356 70.223077 41.388697 71.049231 41.836649 71.875385 42.284209 72.701538 42.731369 73.527692 43.178124 74.353846 43.624470 75.180000 44.070399 76.006154 44.515908 76.832308 44.960989 77.658462 45.405638 78.484615 45.849850 79.310769 46.293618 80.136923 46.736937 80.963077 47.179801 81.789231 47.622205 82.615385 48.064144 83.441538 48.505612 84.267692 48.946603 85.093846 49.387111 85.920000 49.827132 86.746154 50.266660 87.572308 50.705688 88.398462 51.144213 89.224615 51.582227 90.050769 52.019726 90.876923 52.456704 91.703077 52.893155 92.529231 53.329074 93.355385 53.764455 94.181538 54.199294 95.007692 54.633583 95.833846 55.067318 96.660000 55.500494 97.486154 55.933104 98.312308 56.365143 99.138462 56.796605 99.964615 57.227486 100.790769 57.657779 101.616923 58.087479 102.443077 58.516580 103.269231 58.945078 104.095385 59.372965 104.921538 59.800237 105.747692 60.226889 106.573846 60.652914 107.400000 61.078307 108.226154 61.503062 109.052308 61.927175 109.878462 62.350639 110.704615 62.773449 111.530769 63.195600 112.356923 63.617085 113.183077 64.037900 114.009231 64.458038 114.835385 64.877495 115.661538 65.296264 116.487692 65.714341 117.313846 66.131719 118.140000 66.548393 118.966154 66.964357 119.792308 67.379607 120.618462 67.794136 121.444615 68.207939 122.270769 68.621010 123.096923 69.033344 123.923077 69.444935 124.749231 69.855778 125.575385 70.265867 126.401538 70.675197 127.227692 71.083762 128.053846 71.491556 128.880000 71.898575 129.706154 72.304811 130.532308 72.710261 131.358462 73.114918 132.184615 73.518777 133.010769 73.921832 133.836923 74.324078 134.663077 74.725509 135.489231 75.126120 136.315385 75.525905 137.141538 75.924858 137.967692 76.322975 138.793846 76.720248 139.620000 77.116674 140.446154 77.512246 141.272308 77.906959 142.098462 78.300808 142.924615 78.693786 143.750769 79.085888 144.576923 79.477109 145.403077 79.867443 146.229231 80.256885 147.055385 80.645429 147.881538 81.033069 148.707692 81.419801 149.533846 81.805617 150.360000 82.190514 151.186154 82.574485 152.012308 82.957524 152.838462 83.339627 153.664615 83.720788 154.490769 84.101001 155.316923 84.480260 156.143077 84.858560 156.969231 85.235896 157.795385 85.612262 158.621538 85.987653 159.447692 86.362062 160.273846 86.735485 161.100000 87.107915 161.926154 87.479348 162.752308 87.849778 163.578462 88.219199 164.404615 88.587605 165.230769 88.954991 166.056923 89.321352 166.883077 89.686682 167.709231 90.050976 168.535385 90.414227 169.361538 90.776431 170.187692 91.137582 171.013846 91.497674 171.840000 91.856702 172.666154 92.214660 173.492308 92.571542 174.318462 92.927344 175.144615 93.282059 175.970769 93.635683 176.796923 93.988209 177.623077 94.339631 178.449231 94.689946 179.275385 95.039146 180.101538 95.387226 180.927692 95.734182 181.753846 96.080006 182.580000 96.424694 183.406154 96.768241 184.232308 97.110640 185.058462 97.451886 185.884615 97.791973 186.710769 98.130897 187.536923 98.468651 188.363077 98.805230 189.189231 99.140628 190.015385 99.474840 190.841538 99.807860 191.667692 100.139684 192.493846 100.470304 193.320000 100.799716 194.146154 101.127914 194.972308 101.454892 195.798462 101.780646 196.624615 102.105169 197.450769 102.428456 198.276923 102.750501 199.103077 103.071300 199.929231 103.390845 200.755385 103.709132 201.581538 104.026156 202.407692 104.341910 203.233846 104.656389 204.060000 104.969588 204.886154 105.281501 205.712308 105.592123 206.538462 105.901447 207.364615 106.209469 208.190769 106.516182 209.016923 106.821582 209.843077 107.125663 210.669231 107.428419 211.495385 107.729845 212.321538 108.029935 213.147692 108.328683 213.973846 108.626085 214.800000 108.922134 215.626154 109.216825 216.452308 109.510153 217.278462 109.802111 218.104615 110.092695 218.930769 110.381898 219.756923 110.669719 220.583077 110.956163 221.409231 111.241239 222.235385 111.524958 223.061538 111.807329 223.887692 112.088360 224.713846 112.368062 225.540000 112.646443 226.366154 112.923512 227.192308 113.199280 228.018462 113.473755 228.844615 113.746947 229.670769 114.018865 230.496923 114.289519 231.323077 114.558916 232.149231 114.827068 232.975385 115.093983 233.801538 115.359671 234.627692 115.624141 235.453846 115.887402 236.280000 116.149463 237.106154 116.410334 237.932308 116.670024 238.758462 116.928543 239.584615 117.185900 240.410769 117.442103 241.236923 117.697163 242.063077 117.951089 242.889231 118.203890 243.715385 118.455575 244.541538 118.706153 245.367692 118.955635 246.193846 119.204029 247.020000 119.451344 247.846154 119.697591 248.672308 119.942777 249.498462 120.186913 250.324615 120.430008 251.150769 120.672071 251.976923 120.913112 252.803077 121.153139 253.629231 121.392162 254.455385 121.630191 255.281538 121.867235 256.107692 122.103302 256.933846 122.338403 257.760000 122.572546 258.586154 122.805742 259.412308 123.037998 260.238462 123.269325 261.064615 123.499732 261.890769 123.729229 262.716923 123.957824 263.543077 124.185526 264.369231 124.412346 265.195385 124.638292 266.021538 124.863374 266.847692 125.087601 267.673846 125.310983 268.500000 125.533528 269.326154 125.755246 270.152308 125.976146 270.978462 126.196239 271.804615 126.415532 272.630769 126.634035 273.456923 126.851758 274.283077 127.068710 275.109231 127.284900 275.935385 127.500337 276.761538 127.715031 277.587692 127.928992 278.413846 128.142228 279.240000 128.354748 280.066154 128.566563 280.892308 128.777681 281.718462 128.988112 282.544615 129.197865 283.370769 129.406949 284.196923 129.615374 285.023077 129.823148 285.849231 130.030282 286.675385 130.236785 287.501538 130.442665 288.327692 130.647933 289.153846 130.852597 289.980000 131.056667 290.806154 131.260152 291.632308 131.463062 292.458462 131.665405 293.284615 131.867191 294.110769 132.068430 294.936923 132.269131 295.763077 132.469302 296.589231 132.668954 297.415385 132.868095 298.241538 133.066736 299.067692 133.264884 299.893846 133.462550 300.720000 133.659743 301.546154 133.856473 302.372308 134.052747 303.198462 134.248577 304.024615 134.443971 304.850769 134.638938 305.676923 134.833488 306.503077 135.027630 307.329231 135.221373 308.155385 135.414727 308.981538 135.607701 309.807692 135.800304 310.633846 135.992546 311.460000 136.184436 312.286154 136.375984 313.112308 136.567197 313.938462 136.758087 314.764615 136.948662 315.590769 137.138931 316.416923 137.328904 317.243077 137.518591 318.069231 137.707999 318.895385 137.897140 319.721538 138.086021 320.547692 138.274653 321.373846 138.463045 322.200000 138.651205 323.026154 138.839144 323.852308 139.026871 324.678462 139.214394 325.504615 139.401724 326.330769 139.588869 327.156923 139.775840 327.983077 139.962644 328.809231 140.149292 329.635385 140.335792 330.461538 140.522155 331.287692 140.708390 332.113846 140.894505 332.940000 141.080510 333.766154 141.266414 334.592308 141.452227 335.418462 141.637958 336.244615 141.823617 337.070769 142.009212 337.896923 142.194753 338.723077 142.380249 339.549231 142.565710 340.375385 142.751145 341.201538 142.936562 342.027692 143.121973 342.853846 143.307385 343.680000 143.492808 344.506154 143.678252 345.332308 143.863726 346.158462 144.049238 346.984615 144.234799 347.810769 144.420418 348.636923 144.606103 349.463077 144.791865 350.289231 144.977713 351.115385 145.163655 351.941538 145.349702 352.767692 145.535862 353.593846 145.722145 354.420000 145.908561 355.246154 146.095118 356.072308 146.281825 356.898462 146.468693 357.724615 146.655730 358.550769 146.842946 359.376923 147.030350 360.203077 147.217952 361.029231 147.405760 361.855385 147.593784 362.681538 147.782033 363.507692 147.970517 364.333846 148.159245 365.160000 148.348226 365.986154 148.537470 366.812308 148.726985 367.638462 148.916782 368.464615 149.106870 369.290769 149.297257 370.116923 149.487953 370.943077 149.678967 371.769231 149.870310 372.595385 150.061989 373.421538 150.254015 374.247692 150.446397 375.073846 150.639143 375.900000 150.832264 376.726154 151.025768 377.552308 151.219666 378.378462 151.413965 379.204615 151.608676 380.030769 151.803808 380.856923 151.999370 381.683077 152.195372 382.509231 152.391823 383.335385 152.588731 384.161538 152.786107 384.987692 152.983960 385.813846 153.182299 386.640000 153.381133 387.466154 153.580472 388.292308 153.780325 389.118462 153.980701 389.944615 154.181610 390.770769 154.383060 391.596923 154.585062 392.423077 154.787625 393.249231 154.990757 394.075385 155.194469 394.901538 155.398769 395.727692 155.603667 396.553846 155.809172 397.380000 156.015293 398.206154 156.222040 399.032308 156.429422 399.858462 156.637449 400.684615 156.846129 401.510769 157.055472 402.336923 157.265488 403.163077 157.476185 403.989231 157.687573 404.815385 157.899661 405.641538 158.112459 406.467692 158.325976 407.293846 158.540221 408.120000 158.755203 408.946154 158.970932 409.772308 159.187417 410.598462 159.404668 411.424615 159.622693 412.250769 159.841503 413.076923 160.061106 413.903077 160.281511 414.729231 160.502729 415.555385 160.724768 416.381538 160.947637 417.207692 161.171346 418.033846 161.395905 418.860000 161.621322 419.686154 161.847607 420.512308 162.074769 421.338462 162.302818 422.164615 162.531762 422.990769 162.761612 423.816923 162.992376 424.643077 163.224064 425.469231 163.456684 426.295385 163.690245 427.121538 163.924745 427.947692 164.160179 428.773846 164.396545 429.600000 164.633837 430.426154 164.872053 431.252308 165.111189 432.078462 165.351241 432.904615 165.592205 433.730769 165.834078 434.556923 166.076855 435.383077 166.320533 436.209231 166.565109 437.035385 166.810577 437.861538 167.056935 438.687692 167.304179 439.513846 167.552305 440.340000 167.801310 441.166154 168.051189 441.992308 168.301938 442.818462 168.553555 443.644615 168.806035 444.470769 169.059374 445.296923 169.313569 446.123077 169.568615 446.949231 169.824510 447.775385 170.081249 448.601538 170.338829 449.427692 170.597246 450.253846 170.856496 451.080000 171.116574 451.906154 171.377479 452.732308 171.639205 453.558462 171.901749 454.384615 172.165108 455.210769 172.429276 456.036923 172.694252 456.863077 172.960030 457.689231 173.226608 458.515385 173.493980 459.341538 173.762145 460.167692 174.031097 460.993846 174.300833 461.820000 174.571350 462.646154 174.842643 463.472308 175.114709 464.298462 175.387543 465.124615 175.661143 465.950769 175.935505 466.776923 176.210624 467.603077 176.486497 468.429231 176.763120 469.255385 177.040489 470.081538 177.318601 470.907692 177.597452 471.733846 177.877038 472.560000 178.157355 473.386154 178.438399 474.212308 178.720167 475.038462 179.002656 475.864615 179.285860 476.690769 179.569777 477.516923 179.854403 478.343077 180.139733 479.169231 180.425765 479.995385 180.712493 480.821538 180.999916 481.647692 181.288028 482.473846 181.576826 483.300000 181.866307 484.126154 182.156466 484.952308 182.447300 485.778462 182.738805 486.604615 183.030977 487.430769 183.323812 488.256923 183.617307 489.083077 183.911458 489.909231 184.206261 490.735385 184.501712 491.561538 184.797808 492.387692 185.094545 493.213846 185.391919 494.040000 185.689926 494.866154 185.988562 495.692308 186.287825 496.518462 186.587709 497.344615 186.888211 498.170769 187.189328 498.996923 187.491056 499.823077 187.793390 500.649231 188.096328 501.475385 188.399864 502.301538 188.703997 503.127692 189.008721 503.953846 189.314033 504.780000 189.619930 505.606154 189.926407 506.432308 190.233460 507.258462 190.541087 508.084615 190.849283 508.910769 191.158044 509.736923 191.467367 510.563077 191.777248 511.389231 192.087683 512.215385 192.398668 513.041538 192.710200 513.867692 193.022274 514.693846 193.334888 515.520000 193.648037 516.346154 193.961717 517.172308 194.275925 517.998462 194.590657 518.824615 194.905910 519.650769 195.221678 520.476923 195.537960 521.303077 195.854750 522.129231 196.172045 522.955385 196.489842 523.781538 196.808136 524.607692 197.126924 525.433846 197.446202 526.260000 197.765966 527.086154 198.086213 527.912308 198.406938 528.738462 198.728139 529.564615 199.049810 530.390769 199.371949 531.216923 199.694552 532.043077 200.017614 532.869231 200.341133 533.695385 200.665104 534.521538 200.989523 535.347692 201.314388 536.173846 201.639693 537.000000 201.965436 537.826154 202.291612 538.652308 202.618218 539.478462 202.945249 540.304615 203.272703 541.130769 203.600576 541.956923 203.928862 542.783077 204.257560 543.609231 204.586665 544.435385 204.916173 545.261538 205.246081 546.087692 205.576385 546.913846 205.907081 547.740000 206.238164 548.566154 206.569633 549.392308 206.901482 550.218462 207.233708 551.044615 207.566307 551.870769 207.899276 552.696923 208.232610 553.523077 208.566306 554.349231 208.900360 555.175385 209.234769 556.001538 209.569528 556.827692 209.904634 557.653846 210.240083 558.480000 210.575871 559.306154 210.911994 560.132308 211.248450 560.958462 211.585233 561.784615 211.922340 562.610769 212.259768 563.436923 212.597513 564.263077 212.935570 565.089231 213.273937 565.915385 213.612608 566.741538 213.951582 567.567692 214.290853 568.393846 214.630418 569.220000 214.970273 570.046154 215.310415 570.872308 215.650840 571.698462 215.991543 572.524615 216.332522 573.350769 216.673772 574.176923 217.015290 575.003077 217.357071 575.829231 217.699113 576.655385 218.041411 577.481538 218.383961 578.307692 218.726761 579.133846 219.069805 579.960000 219.413090 580.786154 219.756613 581.612308 220.100370 582.438462 220.444357 583.264615 220.788570 584.090769 221.133005 584.916923 221.477659 585.743077 221.822528 586.569231 222.167607 587.395385 222.512894 588.221538 222.858385 589.047692 223.204076 589.873846 223.549962 590.700000 223.896041 591.526154 224.242308 592.352308 224.588760 593.178462 224.935393 594.004615 225.282203 594.830769 225.629186 595.656923 225.976339 596.483077 226.323658 597.309231 226.671139 598.135385 227.018778 598.961538 227.366572 599.787692 227.714517 600.613846 228.062608 601.440000 228.410843 602.266154 228.759217 603.092308 229.107727 603.918462 229.456369 604.744615 229.805139 605.570769 230.154034 606.396923 230.503049 607.223077 230.852181 608.049231 231.201426 608.875385 231.550780 609.701538 231.900240 610.527692 232.249802 611.353846 232.599461 612.180000 232.949215 613.006154 233.299060 613.832308 233.648991 614.658462 233.999005 615.484615 234.349098 616.310769 234.699267 617.136923 235.049507 617.963077 235.399815 618.789231 235.750187 619.615385 236.100619 620.441538 236.451108 621.267692 236.801650 622.093846 237.152241 622.920000 237.502877 623.746154 237.853554 624.572308 238.204269 625.398462 238.555018 626.224615 238.905797 627.050769 239.256603 627.876923 239.607431 628.703077 239.958278 629.529231 240.309140 630.355385 240.660014 631.181538 241.010895 632.007692 241.361780 632.007692 488.000000" /></g><g class="series serie-1 color-1"><path class="line reactive" d="M12.392308 488.000000 L12.392308 459.247743 13.218462 459.287670 14.044615 459.327597 14.870769 459.367521 15.696923 459.407444 16.523077 459.447363 17.349231 459.487278 18.175385 459.527189 19.001538 459.567094 19.827692 459.606993 20.653846 459.646884 21.480000 459.686768 22.306154 459.726644 23.132308 459.766510 23.958462 459.806366 24.784615 459.846211 25.610769 459.886044 26.436923 459.925865 27.263077 459.965672 28.089231 460.005465 28.915385 460.045244 29.741538 460.085006 30.567692 460.124753 31.393846 460.164482 32.220000 460.204193 33.046154 460.243886 33.872308 460.283559 34.698462 460.323211 35.524615 460.362843 36.350769 460.402452 37.176923 460.442039 38.003077 460.481603 38.829231 460.521142 39.655385 460.560656 40.481538 460.600144 41.307692 460.639606 42.133846 460.679041 42.960000 460.718447 43.786154 460.757824 44.612308 460.797172 45.438462 460.836489 46.264615 460.875775 47.090769 460.915029 47.916923 460.954250 48.743077 460.993437 49.569231 461.032590 50.395385 461.071708 51.221538 461.110790 52.047692 461.149835 52.873846 461.188842 53.700000 461.227812 54.526154 461.266742 55.352308 461.305632 56.178462 461.344482 57.004615 461.383290 57.830769 461.422056 58.656923 461.460779 59.483077 461.499458 60.309231 461.538092 61.135385 461.576682 61.961538 461.615225 62.787692 461.653721 63.613846 461.692170 64.440000 461.730570 65.266154 461.768920 66.092308 461.807221 66.918462 461.845471 67.744615 461.883669 68.570769 461.921815 69.396923 461.959908 70.223077 461.997947 71.049231 462.035931 71.875385 462.073860 72.701538 462.111732 73.527692 462.149547 74.353846 462.187304 75.180000 462.225003 76.006154 462.262642 76.832308 462.300221 77.658462 462.337740 78.484615 462.375196 79.310769 462.412590 80.136923 462.449920 80.963077 462.487187 81.789231 462.524388 82.615385 462.561524 83.441538 462.598593 84.267692 462.635595 85.093846 462.672529 85.920000 462.709394 86.746154 462.746190 87.572308 462.782915 88.398462 462.819570 89.224615 462.856152 90.050769 462.892661 90.876923 462.929097 91.703077 462.965459 92.529231 463.001746 93.355385 463.037957 94.181538 463.074091 95.007692 463.110148 95.833846 463.146126 96.660000 463.182026 97.486154 463.217846 98.312308 463.253585 99.138462 463.289243 99.964615 463.324819 100.790769 463.360312 101.616923 463.395722 102.443077 463.431047 103.269231 463.466287 104.095385 463.501440 104.921538 463.536507 105.747692 463.571487 106.573846 463.606378 107.400000 463.641180 108.226154 463.675892 109.052308 463.710513 109.878462 463.745043 110.704615 463.779481 111.530769 463.813825 112.356923 463.848076 113.183077 463.882232 114.009231 463.916293 114.835385 463.950257 115.661538 463.984125 116.487692 464.017895 117.313846 464.051566 118.140000 464.085138 118.966154 464.118610 119.792308 464.151981 120.618462 464.185251 121.444615 464.218418 122.270769 464.251482 123.096923 464.284442 123.923077 464.317297 124.749231 464.350046 125.575385 464.382690 126.401538 464.415226 127.227692 464.447654 128.053846 464.479973 128.880000 464.512184 129.706154 464.544283 130.532308 464.576272 131.358462 464.608149 132.184615 464.639914 133.010769 464.671565 133.836923 464.703102 134.663077 464.734524 135.489231 464.765830 136.315385 464.797020 137.141538 464.828092 137.967692 464.859046 138.793846 464.889882 139.620000 464.920598 140.446154 464.951194 141.272308 464.981668 142.098462 465.012020 142.924615 465.042250 143.750769 465.072356 144.576923 465.102338 145.403077 465.132194 146.229231 465.161925 147.055385 465.191529 147.881538 465.221006 148.707692 465.250355 149.533846 465.279574 150.360000 465.308664 151.186154 465.337623 152.012308 465.366451 152.838462 465.395146 153.664615 465.423709 154.490769 465.452138 155.316923 465.480433 156.143077 465.508592 156.969231 465.536615 157.795385 465.564502 158.621538 465.592250 159.447692 465.619861 160.273846 465.647332 161.100000 465.674663 161.926154 465.701854 162.752308 465.728903 163.578462 465.755810 164.404615 465.782573 165.230769 465.809193 166.056923 465.835668 166.883077 465.861998 167.709231 465.888182 168.535385 465.914218 169.361538 465.940107 170.187692 465.965847 171.013846 465.991438 171.840000 466.016879 172.666154 466.042169 173.492308 466.067307 174.318462 466.092293 175.144615 466.117125 175.970769 466.141803 176.796923 466.166327 177.623077 466.190695 178.449231 466.214907 179.275385 466.238961 180.101538 466.262858 180.927692 466.286596 181.753846 466.310174 182.580000 466.333592 183.406154 466.356849 184.232308 466.379945 185.058462 466.402877 185.884615 466.425646 186.710769 466.448251 187.536923 466.470691 188.363077 466.492965 189.189231 466.515073 190.015385 466.537014 190.841538 466.558786 191.667692 466.580389 192.493846 466.601823 193.320000 466.623086 194.146154 466.644178 194.972308 466.665099 195.798462 466.685846 196.624615 466.706419 197.450769 466.726819 198.276923 466.747043 199.103077 466.767091 199.929231 466.786963 200.755385 466.806657 201.581538 466.826173 202.407692 466.845510 203.233846 466.864667 204.060000 466.883643 204.886154 466.902438 205.712308 466.921051 206.538462 466.939481 207.364615 466.957727 208.190769 466.975788 209.016923 466.993665 209.843077 467.011355 210.669231 467.028858 211.495385 467.046174 212.321538 467.063301 213.147692 467.080239 213.973846 467.096987 214.800000 467.113545 215.626154 467.129911 216.452308 467.146084 217.278462 467.162064 218.104615 467.177851 218.930769 467.193442 219.756923 467.208839 220.583077 467.224042 221.409231 467.239053 222.235385 467.253873 223.061538 467.268504 223.887692 467.282949 224.713846 467.297208 225.540000 467.311283 226.366154 467.325176 227.192308 467.338888 228.018462 467.352422 228.844615 467.365779 229.670769 467.378960 230.496923 467.391968 231.323077 467.404803 232.149231 467.417468 232.975385 467.429964 233.801538 467.442293 234.627692 467.454457 235.453846 467.466457 236.280000 467.478294 237.106154 467.489972 237.932308 467.501490 238.758462 467.512852 239.584615 467.524058 240.410769 467.535110 241.236923 467.546011 242.063077 467.556760 242.889231 467.567362 243.715385 467.577816 244.541538 467.588124 245.367692 467.598289 246.193846 467.608312 247.020000 467.618194 247.846154 467.627938 248.672308 467.637545 249.498462 467.647016 250.324615 467.656353 251.150769 467.665559 251.976923 467.674634 252.803077 467.683580 253.629231 467.692400 254.455385 467.701093 255.281538 467.709664 256.107692 467.718112 256.933846 467.726440 257.760000 467.734649 258.586154 467.742741 259.412308 467.750717 260.238462 467.758580 261.064615 467.766331 261.890769 467.773972 262.716923 467.781503 263.543077 467.788928 264.369231 467.796248 265.195385 467.803464 266.021538 467.810577 266.847692 467.817591 267.673846 467.824505 268.500000 467.831323 269.326154 467.838045 270.152308 467.844674 270.978462 467.851211 271.804615 467.857657 272.630769 467.864015 273.456923 467.870285 274.283077 467.876471 275.109231 467.882572 275.935385 467.888592 276.761538 467.894531 277.587692 467.900392 278.413846 467.906175 279.240000 467.911884 280.066154 467.917518 280.892308 467.923081 281.718462 467.928573 282.544615 467.933997 283.370769 467.939354 284.196923 467.944645 285.023077 467.949873 285.849231 467.955039 286.675385 467.960144 287.501538 467.965191 288.327692 467.970181 289.153846 467.975115 289.980000 467.979996 290.806154 467.984825 291.632308 467.989604 292.458462 467.994334 293.284615 467.999017 294.110769 468.003655 294.936923 468.008249 295.763077 468.012801 296.589231 468.017313 297.415385 468.021786 298.241538 468.026223 299.067692 468.030624 299.893846 468.034991 300.720000 468.039327 301.546154 468.043632 302.372308 468.047909 303.198462 468.052159 304.024615 468.056383 304.850769 468.060584 305.676923 468.064763 306.503077 468.068921 307.329231 468.073061 308.155385 468.077185 308.981538 468.081292 309.807692 468.085387 310.633846 468.089469 311.460000 468.093541 312.286154 468.097605 313.112308 468.101661 313.938462 468.105713 314.764615 468.109761 315.590769 468.113807 316.416923 468.117852 317.243077 468.121899 318.069231 468.125950 318.895385 468.130005 319.721538 468.134066 320.547692 468.138135 321.373846 468.142215 322.200000 468.146305 323.026154 468.150409 323.852308 468.154528 324.678462 468.158663 325.504615 468.162816 326.330769 468.166989 327.156923 468.171184 327.983077 468.175401 328.809231 468.179643 329.635385 468.183912 330.461538 468.188209 331.287692 468.192536 332.113846 468.196894 332.940000 468.201285 333.766154 468.205711 334.592308 468.210174 335.418462 468.214675 336.244615 468.219215 337.070769 468.223797 337.896923 468.228422 338.723077 468.233092 339.549231 468.237809 340.375385 468.242573 341.201538 468.247388 342.027692 468.252254 342.853846 468.257173 343.680000 468.262147 344.506154 468.267177 345.332308 468.272266 346.158462 468.277414 346.984615 468.282624 347.810769 468.287897 348.636923 468.293235 349.463077 468.298639 350.289231 468.304112 351.115385 468.309654 351.941538 468.315268 352.767692 468.320955 353.593846 468.326717 354.420000 468.332556 355.246154 468.338472 356.072308 468.344469 356.898462 468.350547 357.724615 468.356708 358.550769 468.362954 359.376923 468.369287 360.203077 468.375707 361.029231 468.382218 361.855385 468.388820 362.681538 468.395516 363.507692 468.402306 364.333846 468.409193 365.160000 468.416178 365.986154 468.423263 366.812308 468.430449 367.638462 468.437739 368.464615 468.445133 369.290769 468.452634 370.116923 468.460244 370.943077 468.467963 371.769231 468.475794 372.595385 468.483738 373.421538 468.491797 374.247692 468.499972 375.073846 468.508266 375.900000 468.516679 376.726154 468.525214 377.552308 468.533873 378.378462 468.542656 379.204615 468.551566 380.030769 468.560604 380.856923 468.569772 381.683077 468.579072 382.509231 468.588505 383.335385 468.598072 384.161538 468.607777 384.987692 468.617619 385.813846 468.627602 386.640000 468.637726 387.466154 468.647993 388.292308 468.658406 389.118462 468.668965 389.944615 468.679672 390.770769 468.690529 391.596923 468.701538 392.423077 468.712700 393.249231 468.724017 394.075385 468.735490 394.901538 468.747122 395.727692 468.758914 396.553846 468.770867 397.380000 468.782984 398.206154 468.795266 399.032308 468.807714 399.858462 468.820330 400.684615 468.833117 401.510769 468.846075 402.336923 468.859206 403.163077 468.872513 403.989231 468.885996 404.815385 468.899657 405.641538 468.913498 406.467692 468.927521 407.293846 468.941728 408.120000 468.956119 408.946154 468.970697 409.772308 468.985463 410.598462 469.000419 411.424615 469.015567 412.250769 469.030908 413.076923 469.046444 413.903077 469.062177 414.729231 469.078108 415.555385 469.094239 416.381538 469.110572 417.207692 469.127108 418.033846 469.143849 418.860000 469.160796 419.686154 469.177953 420.512308 469.195319 421.338462 469.212896 422.164615 469.230687 422.990769 469.248694 423.816923 469.266916 424.643077 469.285357 425.469231 469.304019 426.295385 469.322901 427.121538 469.342004 427.947692 469.361327 428.773846 469.380870 429.600000 469.400630 430.426154 469.420607 431.252308 469.440801 432.078462 469.461211 432.904615 469.481835 433.730769 469.502672 434.556923 469.523723 435.383077 469.544985 436.209231 469.566459 437.035385 469.588142 437.861538 469.610035 438.687692 469.632136 439.513846 469.654445 440.340000 469.676961 441.166154 469.699682 441.992308 469.722608 442.818462 469.745737 443.644615 469.769070 444.470769 469.792606 445.296923 469.816342 446.123077 469.840279 446.949231 469.864415 447.775385 469.888750 448.601538 469.913283 449.427692 469.938012 450.253846 469.962938 451.080000 469.988059 451.906154 470.013373 452.732308 470.038882 453.558462 470.064582 454.384615 470.090474 455.210769 470.116557 456.036923 470.142829 456.863077 470.169291 457.689231 470.195940 458.515385 470.222777 459.341538 470.249799 460.167692 470.277007 460.993846 470.304400 461.820000 470.331976 462.646154 470.359734 463.472308 470.387675 464.298462 470.415796 465.124615 470.444098 465.950769 470.472578 466.776923 470.501237 467.603077 470.530073 468.429231 470.559085 469.255385 470.588274 470.081538 470.617636 470.907692 470.647173 471.733846 470.676882 472.560000 470.706764 473.386154 470.736817 474.212308 470.767040 475.038462 470.797432 475.864615 470.827993 476.690769 470.858721 477.516923 470.889616 478.343077 470.920677 479.169231 470.951903 479.995385 470.983293 480.821538 471.014846 481.647692 471.046561 482.473846 471.078438 483.300000 471.110475 484.126154 471.142672 484.952308 471.175027 485.778462 471.207541 486.604615 471.240211 487.430769 471.273037 488.256923 471.306019 489.083077 471.339155 489.909231 471.372444 490.735385 471.405886 491.561538 471.439479 492.387692 471.473223 493.213846 471.507117 494.040000 471.541160 494.866154 471.575352 495.692308 471.609690 496.518462 471.644174 497.344615 471.678804 498.170769 471.713579 498.996923 471.748497 499.823077 471.783558 500.649231 471.818761 501.475385 471.854105 502.301538 471.889589 503.127692 471.925212 503.953846 471.960974 504.780000 471.996873 505.606154 472.032908 506.432308 472.069079 507.258462 472.105385 508.084615 472.141825 508.910769 472.178398 509.736923 472.215103 510.563077 472.251939 511.389231 472.288906 512.215385 472.326002 513.041538 472.363226 513.867692 472.400579 514.693846 472.438058 515.520000 472.475663 516.346154 472.513393 517.172308 472.551247 517.998462 472.589225 518.824615 472.627324 519.650769 472.665546 520.476923 472.703888 521.303077 472.742349 522.129231 472.780930 522.955385 472.819628 523.781538 472.858444 524.607692 472.897375 525.433846 472.936422 526.260000 472.975583 527.086154 473.014858 527.912308 473.054245 528.738462 473.093745 529.564615 473.133355 530.390769 473.173074 531.216923 473.212903 532.043077 473.252841 532.869231 473.292885 533.695385 473.333036 534.521538 473.373292 535.347692 473.413653 536.173846 473.454118 537.000000 473.494686 537.826154 473.535355 538.652308 473.576126 539.478462 473.616997 540.304615 473.657967 541.130769 473.699036 541.956923 473.740202 542.783077 473.781465 543.609231 473.822823 544.435385 473.864277 545.261538 473.905824 546.087692 473.947465 546.913846 473.989198 547.740000 474.031022 548.566154 474.072937 549.392308 474.114941 550.218462 474.157034 551.044615 474.199214 551.870769 474.241482 552.696923 474.283835 553.523077 474.326274 554.349231 474.368797 555.175385 474.411403 556.001538 474.454092 556.827692 474.496862 557.653846 474.539713 558.480000 474.582644 559.306154 474.625654 560.132308 474.668741 560.958462 474.711906 561.784615 474.755147 562.610769 474.798464 563.436923 474.841855 564.263077 474.885319 565.089231 474.928857 565.915385 474.972466 566.741538 475.016146 567.567692 475.059896 568.393846 475.103716 569.220000 475.147603 570.046154 475.191558 570.872308 475.235580 571.698462 475.279667 572.524615 475.323819 573.350769 475.368034 574.176923 475.412313 575.003077 475.456654 575.829231 475.501055 576.655385 475.545518 577.481538 475.590039 578.307692 475.634619 579.133846 475.679257 579.960000 475.723952 580.786154 475.768702 581.612308 475.813507 582.438462 475.858367 583.264615 475.903280 584.090769 475.948245 584.916923 475.993261 585.743077 476.038328 586.569231 476.083445 587.395385 476.128610 588.221538 476.173823 589.047692 476.219083 589.873846 476.264390 590.700000 476.309741 591.526154 476.355137 592.352308 476.400577 593.178462 476.446059 594.004615 476.491582 594.830769 476.537147 595.656923 476.582751 596.483077 476.628394 597.309231 476.674076 598.135385 476.719795 598.961538 476.765550 599.787692 476.811340 600.613846 476.857165 601.440000 476.903024 602.266154 476.948916 603.092308 476.994839 603.918462 477.040794 604.744615 477.086779 605.570769 477.132793 606.396923 477.178835 607.223077 477.224905 608.049231 477.271001 608.875385 477.317123 609.701538 477.363270 610.527692 477.409441 611.353846 477.455635 612.180000 477.501852 613.006154 477.548089 613.832308 477.594347 614.658462 477.640624 615.484615 477.686920 616.310769 477.733234 617.136923 477.779564 617.963077 477.825911 618.789231 477.872273 619.615385 477.918648 620.441538 477.965037 621.267692 478.011439 622.093846 478.057852 622.920000 478.104276 623.746154 478.150709 624.572308 478.197151 625.398462 478.243602 626.224615 478.290059 627.050769 478.336523 627.876923 478.382991 628.703077 478.429465 629.529231 478.475942 630.355385 478.522421 631.181538 478.568902 632.007692 478.615385 632.007692 488.000000" /></g></g><g class="titles"><text class="title plot_title" x="400.0" y="26">เพศ</text><text class="title" x="457.79999999999995" y="580">ปี</text><text class="title" transform="rotate(-90 55.600000 290.000000)" x="55.6" y="316.0">จำนวนผู้ป่วย</text></g><g class="plot overlay" transform="translate(135, 46)"><g class="series serie-0 color-0"><g class="dots"><circle class="dot reactive tooltip-trigger" cx="12.392307692307691" cy="9.384615384615358" r="2.5" /><desc class="value">8481</desc><desc class="x ">12.392307692307691</desc><desc class="y ">9.384615384615358</desc><desc class="x_label">2555</desc></g><g class="dots"><circle class="dot reactive tooltip-trigger" cx="218.93076923076922" cy="110.38189829749558" r="2.5" /><desc class="value">6854</desc><desc class="x ">218.93076923076922</desc><desc class="y ">110.38189829749558</desc><desc class="x_label">2556</desc></g><g class="dots"><circle class="dot reactive tooltip-trigger" cx="425.46923076923076" cy="163.45668433960532" r="2.5" /><desc class="value">5999</desc><desc class="x left">425.46923076923076</desc><desc class="y left">163.45668433960532</desc><desc class="x_label">2557</desc></g><g class="dots"><circle class="dot reactive tooltip-trigger" cx="632.0076923076923" cy="241.3617796411817" r="2.5" /><desc class="value">4744</desc><desc class="x left">632.0076923076923</desc><desc class="y left">241.3617796411817</desc><desc class="x_label">2558</desc></g></g><g class="series serie-1 color-1"><g class="dots"><circle class="dot reactive tooltip-trigger" cx="12.392307692307691" cy="459.2477433930007" r="2.5" /><desc class="value">1234</desc><desc class="x top">12.392307692307691</desc><desc class="y top">459.2477433930007</desc><desc class="x_label">2555</desc></g><g class="dots"><circle class="dot reactive tooltip-trigger" cx="218.93076923076922" cy="467.19344235603" r="2.5" /><desc class="value">1106</desc><desc class="x top">218.93076923076922</desc><desc class="y top">467.19344235603</desc><desc class="x_label">2556</desc></g><g class="dots"><circle class="dot reactive tooltip-trigger" cx="425.46923076923076" cy="469.30401864308465" r="2.5" /><desc class="value">1072</desc><desc class="x left top">425.46923076923076</desc><desc class="y left top">469.30401864308465</desc><desc class="x_label">2557</desc></g><g class="dots"><circle class="dot reactive tooltip-trigger" cx="632.0076923076923" cy="478.61538461538464" r="2.5" /><desc class="value">922</desc><desc class="x left top">632.0076923076923</desc><desc class="y left top">478.61538461538464</desc><desc class="x_label">2558</desc></g></g></g><g class="plot text-overlay" transform="translate(135, 46)"><g class="series serie-0 color-0" /><g class="series serie-1 color-1" /></g><g class="plot tooltip-overlay" transform="translate(135, 46)"><g class="tooltip" style="opacity: 0" transform="translate(0 0)"><rect class="tooltip-box" height="0" rx="0" ry="0" width="0" /><g class="text" /></g></g><g class="legends" transform="translate(10, 56)"><g class="legend reactive activate-serie" id="activate-serie-0"><rect class="color-0 reactive" height="12" width="12" x="0.0" y="1.0" /><text x="17.0" y="11.2">ชาย</text></g><g class="legend reactive activate-serie" id="activate-serie-1"><rect class="color-1 reactive" height="12" width="12" x="0.0" y="22.0" /><text x="17.0" y="32.2">หญิง</text></g></g><g class="legends" transform="translate(790, 56)" /></g></svg>